<?xml version="1.0" encoding="UTF-8" standalone="no"?><svg xmlns="http://www.w3.org/2000/svg" xmlns:xlink="http://www.w3.org/1999/xlink" contentScriptType="application/ecmascript" contentStyleType="text/css" height="1019px" preserveAspectRatio="none" style="width:3098px;height:1019px;background:#FFFFFF;" version="1.1" viewBox="0 0 3098 1019" width="3098px" zoomAndPan="magnify"><defs><filter height="300%" id="f1jxcs9vjeqs6s" width="300%" x="-1" y="-1"><feGaussianBlur result="blurOut" stdDeviation="2.0"/><feColorMatrix in="blurOut" result="blurOut2" type="matrix" values="0 0 0 0 0 0 0 0 0 0 0 0 0 0 0 0 0 0 .4 0"/><feOffset dx="4.0" dy="4.0" in="blurOut2" result="blurOut3"/><feBlend in="SourceGraphic" in2="blurOut3" mode="normal"/></filter></defs><g><!--MD5=[9859b7e54ef68cc75a502aae33405a03]
class GameManger--><rect codeLine="1" fill="#FEFECE" filter="url(#f1jxcs9vjeqs6s)" height="240.0703" id="GameManger" style="stroke:#A80036;stroke-width:1.5;" width="179" x="100" y="7"/><ellipse cx="145.25" cy="23" fill="#ADD1B2" rx="11" ry="11" style="stroke:#A80036;stroke-width:1.0;"/><path d="M147.5938,18.6719 C146.6563,18.2344 146.0625,18.0938 145.1875,18.0938 C142.5625,18.0938 140.5625,20.1719 140.5625,22.8906 L140.5625,24.0156 C140.5625,26.5938 142.6719,28.4844 145.5625,28.4844 C146.7813,28.4844 147.9375,28.1875 148.6875,27.6406 C149.2656,27.2344 149.5938,26.7813 149.5938,26.3906 C149.5938,25.9375 149.2031,25.5469 148.7344,25.5469 C148.5156,25.5469 148.3125,25.625 148.125,25.8125 C147.6719,26.2969 147.6719,26.2969 147.4844,26.3906 C147.0625,26.6563 146.375,26.7813 145.6094,26.7813 C143.5625,26.7813 142.2656,25.6875 142.2656,23.9844 L142.2656,22.8906 C142.2656,21.1094 143.5156,19.7969 145.25,19.7969 C145.8281,19.7969 146.4375,19.9531 146.9063,20.2031 C147.3906,20.4844 147.5625,20.7031 147.6563,21.1094 C147.7188,21.5156 147.75,21.6406 147.8906,21.7656 C148.0313,21.9063 148.2656,22.0156 148.4844,22.0156 C148.75,22.0156 149.0156,21.875 149.1875,21.6563 C149.2969,21.5 149.3281,21.3125 149.3281,20.8906 L149.3281,19.4688 C149.3281,19.0313 149.3125,18.9063 149.2188,18.75 C149.0625,18.4844 148.7813,18.3438 148.4844,18.3438 C148.1875,18.3438 147.9844,18.4375 147.7656,18.75 L147.5938,18.6719 Z " fill="#000000"/><text fill="#000000" font-family="sans-serif" font-size="12" lengthAdjust="spacing" textLength="80" x="165.75" y="27.1543">GameManger</text><line style="stroke:#A80036;stroke-width:1.5;" x1="101" x2="278" y1="39" y2="39"/><text fill="#000000" font-family="sans-serif" font-size="11" lengthAdjust="spacing" textLength="167" x="106" y="53.2104">sf::RenderWindow m_window;</text><text fill="#000000" font-family="sans-serif" font-size="11" lengthAdjust="spacing" textLength="89" x="106" y="66.0151">Board m_board;</text><text fill="#000000" font-family="sans-serif" font-size="11" lengthAdjust="spacing" textLength="107" x="106" y="78.8198">sf::Event m_event;</text><text fill="#000000" font-family="sans-serif" font-size="11" lengthAdjust="spacing" textLength="136" x="106" y="91.6245">Location m_centerView;</text><text fill="#000000" font-family="sans-serif" font-size="11" lengthAdjust="spacing" textLength="144" x="106" y="104.4292">sf::Vector2f m_MousePos;</text><text fill="#000000" font-family="sans-serif" font-size="11" lengthAdjust="spacing" textLength="98" x="106" y="117.2339">sf::Clock m_clock;</text><text fill="#000000" font-family="sans-serif" font-size="11" lengthAdjust="spacing" textLength="119" x="106" y="130.0386">sf::Clock m_clockRun;</text><text fill="#000000" font-family="sans-serif" font-size="11" lengthAdjust="spacing" textLength="95" x="106" y="142.8433">sf::Time m_time;</text><text fill="#000000" font-family="sans-serif" font-size="11" lengthAdjust="spacing" textLength="101" x="106" y="155.6479">Player* m_player;</text><text fill="#000000" font-family="sans-serif" font-size="11" lengthAdjust="spacing" textLength="88" x="106" y="168.4526">Menu m_menu;</text><text fill="#000000" font-family="sans-serif" font-size="11" lengthAdjust="spacing" textLength="0" x="110" y="181.2573"/><text fill="#000000" font-family="sans-serif" font-size="11" lengthAdjust="spacing" textLength="112" x="106" y="194.062">bool m_win = false;</text><text fill="#000000" font-family="sans-serif" font-size="11" lengthAdjust="spacing" textLength="67" x="106" y="206.8667">int m_level;</text><text fill="#000000" font-family="sans-serif" font-size="11" lengthAdjust="spacing" textLength="0" x="110" y="219.6714"/><text fill="#000000" font-family="sans-serif" font-size="11" lengthAdjust="spacing" textLength="141" x="106" y="232.4761">const char* m_nameFile;</text><line style="stroke:#A80036;stroke-width:1.5;" x1="101" x2="278" y1="239.0703" y2="239.0703"/><!--MD5=[f0268dd29ee89052933f031546cb1cab]
class Menu--><rect codeLine="20" fill="#FEFECE" filter="url(#f1jxcs9vjeqs6s)" height="201.6563" id="Menu" style="stroke:#A80036;stroke-width:1.5;" width="274" x="314.5" y="26"/><ellipse cx="431.25" cy="42" fill="#ADD1B2" rx="11" ry="11" style="stroke:#A80036;stroke-width:1.0;"/><path d="M433.5938,37.6719 C432.6563,37.2344 432.0625,37.0938 431.1875,37.0938 C428.5625,37.0938 426.5625,39.1719 426.5625,41.8906 L426.5625,43.0156 C426.5625,45.5938 428.6719,47.4844 431.5625,47.4844 C432.7813,47.4844 433.9375,47.1875 434.6875,46.6406 C435.2656,46.2344 435.5938,45.7813 435.5938,45.3906 C435.5938,44.9375 435.2031,44.5469 434.7344,44.5469 C434.5156,44.5469 434.3125,44.625 434.125,44.8125 C433.6719,45.2969 433.6719,45.2969 433.4844,45.3906 C433.0625,45.6563 432.375,45.7813 431.6094,45.7813 C429.5625,45.7813 428.2656,44.6875 428.2656,42.9844 L428.2656,41.8906 C428.2656,40.1094 429.5156,38.7969 431.25,38.7969 C431.8281,38.7969 432.4375,38.9531 432.9063,39.2031 C433.3906,39.4844 433.5625,39.7031 433.6563,40.1094 C433.7188,40.5156 433.75,40.6406 433.8906,40.7656 C434.0313,40.9063 434.2656,41.0156 434.4844,41.0156 C434.75,41.0156 435.0156,40.875 435.1875,40.6563 C435.2969,40.5 435.3281,40.3125 435.3281,39.8906 L435.3281,38.4688 C435.3281,38.0313 435.3125,37.9063 435.2188,37.75 C435.0625,37.4844 434.7813,37.3438 434.4844,37.3438 C434.1875,37.3438 433.9844,37.4375 433.7656,37.75 L433.5938,37.6719 Z " fill="#000000"/><text fill="#000000" font-family="sans-serif" font-size="12" lengthAdjust="spacing" textLength="32" x="451.75" y="46.1543">Menu</text><line style="stroke:#A80036;stroke-width:1.5;" x1="315.5" x2="587.5" y1="58" y2="58"/><text fill="#000000" font-family="sans-serif" font-size="11" lengthAdjust="spacing" textLength="167" x="320.5" y="72.2104">sf::RenderWindow m_window;</text><text fill="#000000" font-family="sans-serif" font-size="11" lengthAdjust="spacing" textLength="98" x="320.5" y="85.0151">Board&amp; m_board;</text><text fill="#000000" font-family="sans-serif" font-size="11" lengthAdjust="spacing" textLength="107" x="320.5" y="97.8198">sf::Event m_event;</text><text fill="#000000" font-family="sans-serif" font-size="11" lengthAdjust="spacing" textLength="144" x="320.5" y="110.6245">sf::Vector2f m_MousePos;</text><text fill="#000000" font-family="sans-serif" font-size="11" lengthAdjust="spacing" textLength="0" x="324.5" y="123.4292"/><text fill="#000000" font-family="sans-serif" font-size="11" lengthAdjust="spacing" textLength="208" x="320.5" y="136.2339">std::map &lt; Bool, bool &gt; m_mapBool;</text><text fill="#000000" font-family="sans-serif" font-size="11" lengthAdjust="spacing" textLength="0" x="324.5" y="149.0386"/><text fill="#000000" font-family="sans-serif" font-size="11" lengthAdjust="spacing" textLength="67" x="320.5" y="161.8433">int m_level;</text><text fill="#000000" font-family="sans-serif" font-size="11" lengthAdjust="spacing" textLength="72" x="320.5" y="174.6479">char m_char;</text><text fill="#000000" font-family="sans-serif" font-size="11" lengthAdjust="spacing" textLength="262" x="320.5" y="187.4526">vector &lt; vector &lt; char&gt; &gt; m_charLevelSave;</text><text fill="#000000" font-family="sans-serif" font-size="11" lengthAdjust="spacing" textLength="74" x="320.5" y="200.2573">int m_height;</text><text fill="#000000" font-family="sans-serif" font-size="11" lengthAdjust="spacing" textLength="68" x="320.5" y="213.062">int m_width;</text><line style="stroke:#A80036;stroke-width:1.5;" x1="315.5" x2="587.5" y1="219.6563" y2="219.6563"/><!--MD5=[9563755d011c5cec7ec66dc53565a59e]
class Board--><rect codeLine="36" fill="#FEFECE" filter="url(#f1jxcs9vjeqs6s)" height="227.2656" id="Board" style="stroke:#A80036;stroke-width:1.5;" width="481" x="624" y="13.5"/><ellipse cx="842.25" cy="29.5" fill="#ADD1B2" rx="11" ry="11" style="stroke:#A80036;stroke-width:1.0;"/><path d="M844.5938,25.1719 C843.6563,24.7344 843.0625,24.5938 842.1875,24.5938 C839.5625,24.5938 837.5625,26.6719 837.5625,29.3906 L837.5625,30.5156 C837.5625,33.0938 839.6719,34.9844 842.5625,34.9844 C843.7813,34.9844 844.9375,34.6875 845.6875,34.1406 C846.2656,33.7344 846.5938,33.2813 846.5938,32.8906 C846.5938,32.4375 846.2031,32.0469 845.7344,32.0469 C845.5156,32.0469 845.3125,32.125 845.125,32.3125 C844.6719,32.7969 844.6719,32.7969 844.4844,32.8906 C844.0625,33.1563 843.375,33.2813 842.6094,33.2813 C840.5625,33.2813 839.2656,32.1875 839.2656,30.4844 L839.2656,29.3906 C839.2656,27.6094 840.5156,26.2969 842.25,26.2969 C842.8281,26.2969 843.4375,26.4531 843.9063,26.7031 C844.3906,26.9844 844.5625,27.2031 844.6563,27.6094 C844.7188,28.0156 844.75,28.1406 844.8906,28.2656 C845.0313,28.4063 845.2656,28.5156 845.4844,28.5156 C845.75,28.5156 846.0156,28.375 846.1875,28.1563 C846.2969,28 846.3281,27.8125 846.3281,27.3906 L846.3281,25.9688 C846.3281,25.5313 846.3125,25.4063 846.2188,25.25 C846.0625,24.9844 845.7813,24.8438 845.4844,24.8438 C845.1875,24.8438 844.9844,24.9375 844.7656,25.25 L844.5938,25.1719 Z " fill="#000000"/><text fill="#000000" font-family="sans-serif" font-size="12" lengthAdjust="spacing" textLength="36" x="862.75" y="33.6543">Board</text><line style="stroke:#A80036;stroke-width:1.5;" x1="625" x2="1104" y1="45.5" y2="45.5"/><text fill="#000000" font-family="sans-serif" font-size="11" lengthAdjust="spacing" textLength="178" x="630" y="59.7104">vector &lt; string &gt; m_charBoard;</text><text fill="#000000" font-family="sans-serif" font-size="11" lengthAdjust="spacing" textLength="309" x="630" y="72.5151">vector &lt; shared_ptr &lt; MovingObject &gt;&gt; m_movables;</text><text fill="#000000" font-family="sans-serif" font-size="11" lengthAdjust="spacing" textLength="281" x="630" y="85.3198">vector &lt; unique_ptr &lt; StaticObject &gt;&gt; m_statics;</text><text fill="#000000" font-family="sans-serif" font-size="11" lengthAdjust="spacing" textLength="0" x="634" y="98.1245"/><text fill="#000000" font-family="sans-serif" font-size="11" lengthAdjust="spacing" textLength="469" x="630" y="110.9292">vector &lt; unique_ptr &lt; GameObject &gt;&gt; m_menuObjects; // for creator level mode</text><text fill="#000000" font-family="sans-serif" font-size="11" lengthAdjust="spacing" textLength="434" x="630" y="123.7339">vector &lt; unique_ptr &lt; GameObject &gt;&gt; m_objects; // for creator level mode</text><text fill="#000000" font-family="sans-serif" font-size="11" lengthAdjust="spacing" textLength="0" x="634" y="136.5386"/><text fill="#000000" font-family="sans-serif" font-size="11" lengthAdjust="spacing" textLength="124" x="630" y="149.3433">ifstream m_BoardFile;</text><text fill="#000000" font-family="sans-serif" font-size="11" lengthAdjust="spacing" textLength="211" x="630" y="162.1479">streamoff m_startLevelOnTextBoard;</text><text fill="#000000" font-family="sans-serif" font-size="11" lengthAdjust="spacing" textLength="106" x="630" y="174.9526">sf::Sprite m_sprite;</text><text fill="#000000" font-family="sans-serif" font-size="11" lengthAdjust="spacing" textLength="145" x="630" y="187.7573">sf::Vector2f m_sizeBoard;</text><text fill="#000000" font-family="sans-serif" font-size="11" lengthAdjust="spacing" textLength="0" x="634" y="200.562"/><text fill="#000000" font-family="sans-serif" font-size="11" lengthAdjust="spacing" textLength="110" x="630" y="213.3667">int m_totalEmerald;</text><text fill="#000000" font-family="sans-serif" font-size="11" lengthAdjust="spacing" textLength="169" x="630" y="226.1714">bool m_restartGame = false ;</text><line style="stroke:#A80036;stroke-width:1.5;" x1="625" x2="1104" y1="232.7656" y2="232.7656"/><!--MD5=[064f7a74fee85463ec1a30143664ee17]
class GameObject--><rect codeLine="55" fill="#FEFECE" filter="url(#f1jxcs9vjeqs6s)" height="86.4141" id="GameObject" style="stroke:#A80036;stroke-width:1.5;" width="167" x="1793" y="84"/><ellipse cx="1835" cy="100" fill="#ADD1B2" rx="11" ry="11" style="stroke:#A80036;stroke-width:1.0;"/><path d="M1837.3438,95.6719 C1836.4063,95.2344 1835.8125,95.0938 1834.9375,95.0938 C1832.3125,95.0938 1830.3125,97.1719 1830.3125,99.8906 L1830.3125,101.0156 C1830.3125,103.5938 1832.4219,105.4844 1835.3125,105.4844 C1836.5313,105.4844 1837.6875,105.1875 1838.4375,104.6406 C1839.0156,104.2344 1839.3438,103.7813 1839.3438,103.3906 C1839.3438,102.9375 1838.9531,102.5469 1838.4844,102.5469 C1838.2656,102.5469 1838.0625,102.625 1837.875,102.8125 C1837.4219,103.2969 1837.4219,103.2969 1837.2344,103.3906 C1836.8125,103.6563 1836.125,103.7813 1835.3594,103.7813 C1833.3125,103.7813 1832.0156,102.6875 1832.0156,100.9844 L1832.0156,99.8906 C1832.0156,98.1094 1833.2656,96.7969 1835,96.7969 C1835.5781,96.7969 1836.1875,96.9531 1836.6563,97.2031 C1837.1406,97.4844 1837.3125,97.7031 1837.4063,98.1094 C1837.4688,98.5156 1837.5,98.6406 1837.6406,98.7656 C1837.7813,98.9063 1838.0156,99.0156 1838.2344,99.0156 C1838.5,99.0156 1838.7656,98.875 1838.9375,98.6563 C1839.0469,98.5 1839.0781,98.3125 1839.0781,97.8906 L1839.0781,96.4688 C1839.0781,96.0313 1839.0625,95.9063 1838.9688,95.75 C1838.8125,95.4844 1838.5313,95.3438 1838.2344,95.3438 C1837.9375,95.3438 1837.7344,95.4375 1837.5156,95.75 L1837.3438,95.6719 Z " fill="#000000"/><text fill="#000000" font-family="sans-serif" font-size="12" lengthAdjust="spacing" textLength="75" x="1855" y="104.1543">GameObject</text><line style="stroke:#A80036;stroke-width:1.5;" x1="1794" x2="1959" y1="116" y2="116"/><text fill="#000000" font-family="sans-serif" font-size="11" lengthAdjust="spacing" textLength="106" x="1799" y="130.2104">sf::Sprite m_sprite;</text><text fill="#000000" font-family="sans-serif" font-size="11" lengthAdjust="spacing" textLength="155" x="1799" y="143.0151">bool m_isDisposed = false;</text><text fill="#000000" font-family="sans-serif" font-size="11" lengthAdjust="spacing" textLength="72" x="1799" y="155.8198">char m_char;</text><line style="stroke:#A80036;stroke-width:1.5;" x1="1794" x2="1959" y1="162.4141" y2="162.4141"/><!--MD5=[45c81575b743c0960d996f87188658c4]
class MovingObject--><rect codeLine="63" fill="#FEFECE" filter="url(#f1jxcs9vjeqs6s)" height="214.4609" id="MovingObject" style="stroke:#A80036;stroke-width:1.5;" width="262" x="1330.5" y="307"/><ellipse cx="1415.75" cy="323" fill="#ADD1B2" rx="11" ry="11" style="stroke:#A80036;stroke-width:1.0;"/><path d="M1418.0938,318.6719 C1417.1563,318.2344 1416.5625,318.0938 1415.6875,318.0938 C1413.0625,318.0938 1411.0625,320.1719 1411.0625,322.8906 L1411.0625,324.0156 C1411.0625,326.5938 1413.1719,328.4844 1416.0625,328.4844 C1417.2813,328.4844 1418.4375,328.1875 1419.1875,327.6406 C1419.7656,327.2344 1420.0938,326.7813 1420.0938,326.3906 C1420.0938,325.9375 1419.7031,325.5469 1419.2344,325.5469 C1419.0156,325.5469 1418.8125,325.625 1418.625,325.8125 C1418.1719,326.2969 1418.1719,326.2969 1417.9844,326.3906 C1417.5625,326.6563 1416.875,326.7813 1416.1094,326.7813 C1414.0625,326.7813 1412.7656,325.6875 1412.7656,323.9844 L1412.7656,322.8906 C1412.7656,321.1094 1414.0156,319.7969 1415.75,319.7969 C1416.3281,319.7969 1416.9375,319.9531 1417.4063,320.2031 C1417.8906,320.4844 1418.0625,320.7031 1418.1563,321.1094 C1418.2188,321.5156 1418.25,321.6406 1418.3906,321.7656 C1418.5313,321.9063 1418.7656,322.0156 1418.9844,322.0156 C1419.25,322.0156 1419.5156,321.875 1419.6875,321.6563 C1419.7969,321.5 1419.8281,321.3125 1419.8281,320.8906 L1419.8281,319.4688 C1419.8281,319.0313 1419.8125,318.9063 1419.7188,318.75 C1419.5625,318.4844 1419.2813,318.3438 1418.9844,318.3438 C1418.6875,318.3438 1418.4844,318.4375 1418.2656,318.75 L1418.0938,318.6719 Z " fill="#000000"/><text fill="#000000" font-family="sans-serif" font-size="12" lengthAdjust="spacing" textLength="83" x="1436.25" y="327.1543">MovingObject</text><line style="stroke:#A80036;stroke-width:1.5;" x1="1331.5" x2="1591.5" y1="339" y2="339"/><text fill="#000000" font-family="sans-serif" font-size="11" lengthAdjust="spacing" textLength="138" x="1336.5" y="353.2104">Location m_lastLocation;</text><text fill="#000000" font-family="sans-serif" font-size="11" lengthAdjust="spacing" textLength="228" x="1336.5" y="366.0151">Direction m_direction = Direction::STAY;</text><text fill="#000000" font-family="sans-serif" font-size="11" lengthAdjust="spacing" textLength="250" x="1336.5" y="378.8198">Direction m_lastDirection = Direction::STAY;</text><text fill="#000000" font-family="sans-serif" font-size="11" lengthAdjust="spacing" textLength="98" x="1336.5" y="391.6245">sf::Clock m_clock;</text><text fill="#000000" font-family="sans-serif" font-size="11" lengthAdjust="spacing" textLength="145" x="1336.5" y="404.4292">sf::Vector2f m_sizeBoard;</text><text fill="#000000" font-family="sans-serif" font-size="11" lengthAdjust="spacing" textLength="67" x="1336.5" y="417.2339">int m_level;</text><text fill="#000000" font-family="sans-serif" font-size="11" lengthAdjust="spacing" textLength="0" x="1340.5" y="430.0386"/><text fill="#000000" font-family="sans-serif" font-size="11" lengthAdjust="spacing" textLength="101" x="1336.5" y="442.8433">class StaticObject</text><text fill="#000000" font-family="sans-serif" font-size="11" lengthAdjust="spacing" textLength="7" x="1336.5" y="455.6479">{</text><text fill="#000000" font-family="sans-serif" font-size="11" lengthAdjust="spacing" textLength="169" x="1336.5" y="468.4526">bool m_isUndrawable = false;</text><line style="stroke:#A80036;stroke-width:1.5;" x1="1331.5" x2="1591.5" y1="475.0469" y2="475.0469"/><text fill="#000000" font-family="sans-serif" font-size="11" lengthAdjust="spacing" textLength="126" x="1336.5" y="489.2573">void setUnDrawable();</text><text fill="#000000" font-family="sans-serif" font-size="11" lengthAdjust="spacing" textLength="111" x="1336.5" y="502.062">void setDrawable();</text><text fill="#000000" font-family="sans-serif" font-size="11" lengthAdjust="spacing" textLength="197" x="1336.5" y="514.8667">bool getUnDrawableStatus() const;</text><!--MD5=[889fa6b0fdcfa4a3438553b36716bd5a]
class StaticObjectConst--><rect codeLine="82" fill="#FEFECE" filter="url(#f1jxcs9vjeqs6s)" height="48" id="StaticObjectConst" style="stroke:#A80036;stroke-width:1.5;" width="139" x="2222" y="696"/><ellipse cx="2237" cy="712" fill="#ADD1B2" rx="11" ry="11" style="stroke:#A80036;stroke-width:1.0;"/><path d="M2239.3438,707.6719 C2238.4063,707.2344 2237.8125,707.0938 2236.9375,707.0938 C2234.3125,707.0938 2232.3125,709.1719 2232.3125,711.8906 L2232.3125,713.0156 C2232.3125,715.5938 2234.4219,717.4844 2237.3125,717.4844 C2238.5313,717.4844 2239.6875,717.1875 2240.4375,716.6406 C2241.0156,716.2344 2241.3438,715.7813 2241.3438,715.3906 C2241.3438,714.9375 2240.9531,714.5469 2240.4844,714.5469 C2240.2656,714.5469 2240.0625,714.625 2239.875,714.8125 C2239.4219,715.2969 2239.4219,715.2969 2239.2344,715.3906 C2238.8125,715.6563 2238.125,715.7813 2237.3594,715.7813 C2235.3125,715.7813 2234.0156,714.6875 2234.0156,712.9844 L2234.0156,711.8906 C2234.0156,710.1094 2235.2656,708.7969 2237,708.7969 C2237.5781,708.7969 2238.1875,708.9531 2238.6563,709.2031 C2239.1406,709.4844 2239.3125,709.7031 2239.4063,710.1094 C2239.4688,710.5156 2239.5,710.6406 2239.6406,710.7656 C2239.7813,710.9063 2240.0156,711.0156 2240.2344,711.0156 C2240.5,711.0156 2240.7656,710.875 2240.9375,710.6563 C2241.0469,710.5 2241.0781,710.3125 2241.0781,709.8906 L2241.0781,708.4688 C2241.0781,708.0313 2241.0625,707.9063 2240.9688,707.75 C2240.8125,707.4844 2240.5313,707.3438 2240.2344,707.3438 C2239.9375,707.3438 2239.7344,707.4375 2239.5156,707.75 L2239.3438,707.6719 Z " fill="#000000"/><text fill="#000000" font-family="sans-serif" font-size="12" lengthAdjust="spacing" textLength="107" x="2251" y="716.1543">StaticObjectConst</text><line style="stroke:#A80036;stroke-width:1.5;" x1="2223" x2="2360" y1="728" y2="728"/><line style="stroke:#A80036;stroke-width:1.5;" x1="2223" x2="2360" y1="736" y2="736"/><!--MD5=[1361c8a5244d381a64811e130931887e]
class StaticObjectVariable--><rect codeLine="86" fill="#FEFECE" filter="url(#f1jxcs9vjeqs6s)" height="48" id="StaticObjectVariable" style="stroke:#A80036;stroke-width:1.5;" width="154" x="2619.5" y="696"/><ellipse cx="2634.5" cy="712" fill="#ADD1B2" rx="11" ry="11" style="stroke:#A80036;stroke-width:1.0;"/><path d="M2636.8438,707.6719 C2635.9063,707.2344 2635.3125,707.0938 2634.4375,707.0938 C2631.8125,707.0938 2629.8125,709.1719 2629.8125,711.8906 L2629.8125,713.0156 C2629.8125,715.5938 2631.9219,717.4844 2634.8125,717.4844 C2636.0313,717.4844 2637.1875,717.1875 2637.9375,716.6406 C2638.5156,716.2344 2638.8438,715.7813 2638.8438,715.3906 C2638.8438,714.9375 2638.4531,714.5469 2637.9844,714.5469 C2637.7656,714.5469 2637.5625,714.625 2637.375,714.8125 C2636.9219,715.2969 2636.9219,715.2969 2636.7344,715.3906 C2636.3125,715.6563 2635.625,715.7813 2634.8594,715.7813 C2632.8125,715.7813 2631.5156,714.6875 2631.5156,712.9844 L2631.5156,711.8906 C2631.5156,710.1094 2632.7656,708.7969 2634.5,708.7969 C2635.0781,708.7969 2635.6875,708.9531 2636.1563,709.2031 C2636.6406,709.4844 2636.8125,709.7031 2636.9063,710.1094 C2636.9688,710.5156 2637,710.6406 2637.1406,710.7656 C2637.2813,710.9063 2637.5156,711.0156 2637.7344,711.0156 C2638,711.0156 2638.2656,710.875 2638.4375,710.6563 C2638.5469,710.5 2638.5781,710.3125 2638.5781,709.8906 L2638.5781,708.4688 C2638.5781,708.0313 2638.5625,707.9063 2638.4688,707.75 C2638.3125,707.4844 2638.0313,707.3438 2637.7344,707.3438 C2637.4375,707.3438 2637.2344,707.4375 2637.0156,707.75 L2636.8438,707.6719 Z " fill="#000000"/><text fill="#000000" font-family="sans-serif" font-size="12" lengthAdjust="spacing" textLength="122" x="2648.5" y="716.1543">StaticObjectVariable</text><line style="stroke:#A80036;stroke-width:1.5;" x1="2620.5" x2="2772.5" y1="728" y2="728"/><line style="stroke:#A80036;stroke-width:1.5;" x1="2620.5" x2="2772.5" y1="736" y2="736"/><!--MD5=[b098efa4dd65edfeebe973e4edec7c36]
class Floor--><rect codeLine="90" fill="#FEFECE" filter="url(#f1jxcs9vjeqs6s)" height="60.8047" id="Floor" style="stroke:#A80036;stroke-width:1.5;" width="145" x="1679" y="931.5"/><ellipse cx="1731.75" cy="947.5" fill="#ADD1B2" rx="11" ry="11" style="stroke:#A80036;stroke-width:1.0;"/><path d="M1734.0938,943.1719 C1733.1563,942.7344 1732.5625,942.5938 1731.6875,942.5938 C1729.0625,942.5938 1727.0625,944.6719 1727.0625,947.3906 L1727.0625,948.5156 C1727.0625,951.0938 1729.1719,952.9844 1732.0625,952.9844 C1733.2813,952.9844 1734.4375,952.6875 1735.1875,952.1406 C1735.7656,951.7344 1736.0938,951.2813 1736.0938,950.8906 C1736.0938,950.4375 1735.7031,950.0469 1735.2344,950.0469 C1735.0156,950.0469 1734.8125,950.125 1734.625,950.3125 C1734.1719,950.7969 1734.1719,950.7969 1733.9844,950.8906 C1733.5625,951.1563 1732.875,951.2813 1732.1094,951.2813 C1730.0625,951.2813 1728.7656,950.1875 1728.7656,948.4844 L1728.7656,947.3906 C1728.7656,945.6094 1730.0156,944.2969 1731.75,944.2969 C1732.3281,944.2969 1732.9375,944.4531 1733.4063,944.7031 C1733.8906,944.9844 1734.0625,945.2031 1734.1563,945.6094 C1734.2188,946.0156 1734.25,946.1406 1734.3906,946.2656 C1734.5313,946.4063 1734.7656,946.5156 1734.9844,946.5156 C1735.25,946.5156 1735.5156,946.375 1735.6875,946.1563 C1735.7969,946 1735.8281,945.8125 1735.8281,945.3906 L1735.8281,943.9688 C1735.8281,943.5313 1735.8125,943.4063 1735.7188,943.25 C1735.5625,942.9844 1735.2813,942.8438 1734.9844,942.8438 C1734.6875,942.8438 1734.4844,942.9375 1734.2656,943.25 L1734.0938,943.1719 Z " fill="#000000"/><text fill="#000000" font-family="sans-serif" font-size="12" lengthAdjust="spacing" textLength="31" x="1752.25" y="951.6543">Floor</text><line style="stroke:#A80036;stroke-width:1.5;" x1="1680" x2="1823" y1="963.5" y2="963.5"/><text fill="#000000" font-family="sans-serif" font-size="11" lengthAdjust="spacing" textLength="133" x="1685" y="977.7104">static bool m_registerit;</text><line style="stroke:#A80036;stroke-width:1.5;" x1="1680" x2="1823" y1="984.3047" y2="984.3047"/><!--MD5=[59bce6008c6de98b4658296f264e2d74]
class Pole--><rect codeLine="94" fill="#FEFECE" filter="url(#f1jxcs9vjeqs6s)" height="60.8047" id="Pole" style="stroke:#A80036;stroke-width:1.5;" width="145" x="1859" y="931.5"/><ellipse cx="1914.75" cy="947.5" fill="#ADD1B2" rx="11" ry="11" style="stroke:#A80036;stroke-width:1.0;"/><path d="M1917.0938,943.1719 C1916.1563,942.7344 1915.5625,942.5938 1914.6875,942.5938 C1912.0625,942.5938 1910.0625,944.6719 1910.0625,947.3906 L1910.0625,948.5156 C1910.0625,951.0938 1912.1719,952.9844 1915.0625,952.9844 C1916.2813,952.9844 1917.4375,952.6875 1918.1875,952.1406 C1918.7656,951.7344 1919.0938,951.2813 1919.0938,950.8906 C1919.0938,950.4375 1918.7031,950.0469 1918.2344,950.0469 C1918.0156,950.0469 1917.8125,950.125 1917.625,950.3125 C1917.1719,950.7969 1917.1719,950.7969 1916.9844,950.8906 C1916.5625,951.1563 1915.875,951.2813 1915.1094,951.2813 C1913.0625,951.2813 1911.7656,950.1875 1911.7656,948.4844 L1911.7656,947.3906 C1911.7656,945.6094 1913.0156,944.2969 1914.75,944.2969 C1915.3281,944.2969 1915.9375,944.4531 1916.4063,944.7031 C1916.8906,944.9844 1917.0625,945.2031 1917.1563,945.6094 C1917.2188,946.0156 1917.25,946.1406 1917.3906,946.2656 C1917.5313,946.4063 1917.7656,946.5156 1917.9844,946.5156 C1918.25,946.5156 1918.5156,946.375 1918.6875,946.1563 C1918.7969,946 1918.8281,945.8125 1918.8281,945.3906 L1918.8281,943.9688 C1918.8281,943.5313 1918.8125,943.4063 1918.7188,943.25 C1918.5625,942.9844 1918.2813,942.8438 1917.9844,942.8438 C1917.6875,942.8438 1917.4844,942.9375 1917.2656,943.25 L1917.0938,943.1719 Z " fill="#000000"/><text fill="#000000" font-family="sans-serif" font-size="12" lengthAdjust="spacing" textLength="25" x="1935.25" y="951.6543">Pole</text><line style="stroke:#A80036;stroke-width:1.5;" x1="1860" x2="2003" y1="963.5" y2="963.5"/><text fill="#000000" font-family="sans-serif" font-size="11" lengthAdjust="spacing" textLength="133" x="1865" y="977.7104">static bool m_registerit;</text><line style="stroke:#A80036;stroke-width:1.5;" x1="1860" x2="2003" y1="984.3047" y2="984.3047"/><!--MD5=[08dfe6c59ed9ecb4018cfd2b80128be4]
class Wall--><rect codeLine="100" fill="#FEFECE" filter="url(#f1jxcs9vjeqs6s)" height="60.8047" id="Wall" style="stroke:#A80036;stroke-width:1.5;" width="145" x="2039" y="931.5"/><ellipse cx="2094.75" cy="947.5" fill="#ADD1B2" rx="11" ry="11" style="stroke:#A80036;stroke-width:1.0;"/><path d="M2097.0938,943.1719 C2096.1563,942.7344 2095.5625,942.5938 2094.6875,942.5938 C2092.0625,942.5938 2090.0625,944.6719 2090.0625,947.3906 L2090.0625,948.5156 C2090.0625,951.0938 2092.1719,952.9844 2095.0625,952.9844 C2096.2813,952.9844 2097.4375,952.6875 2098.1875,952.1406 C2098.7656,951.7344 2099.0938,951.2813 2099.0938,950.8906 C2099.0938,950.4375 2098.7031,950.0469 2098.2344,950.0469 C2098.0156,950.0469 2097.8125,950.125 2097.625,950.3125 C2097.1719,950.7969 2097.1719,950.7969 2096.9844,950.8906 C2096.5625,951.1563 2095.875,951.2813 2095.1094,951.2813 C2093.0625,951.2813 2091.7656,950.1875 2091.7656,948.4844 L2091.7656,947.3906 C2091.7656,945.6094 2093.0156,944.2969 2094.75,944.2969 C2095.3281,944.2969 2095.9375,944.4531 2096.4063,944.7031 C2096.8906,944.9844 2097.0625,945.2031 2097.1563,945.6094 C2097.2188,946.0156 2097.25,946.1406 2097.3906,946.2656 C2097.5313,946.4063 2097.7656,946.5156 2097.9844,946.5156 C2098.25,946.5156 2098.5156,946.375 2098.6875,946.1563 C2098.7969,946 2098.8281,945.8125 2098.8281,945.3906 L2098.8281,943.9688 C2098.8281,943.5313 2098.8125,943.4063 2098.7188,943.25 C2098.5625,942.9844 2098.2813,942.8438 2097.9844,942.8438 C2097.6875,942.8438 2097.4844,942.9375 2097.2656,943.25 L2097.0938,943.1719 Z " fill="#000000"/><text fill="#000000" font-family="sans-serif" font-size="12" lengthAdjust="spacing" textLength="25" x="2115.25" y="951.6543">Wall</text><line style="stroke:#A80036;stroke-width:1.5;" x1="2040" x2="2183" y1="963.5" y2="963.5"/><text fill="#000000" font-family="sans-serif" font-size="11" lengthAdjust="spacing" textLength="133" x="2045" y="977.7104">static bool m_registerit;</text><line style="stroke:#A80036;stroke-width:1.5;" x1="2040" x2="2183" y1="984.3047" y2="984.3047"/><!--MD5=[3fdda2b21354ce4f4119709bccb2aac0]
class Ring--><rect codeLine="106" fill="#FEFECE" filter="url(#f1jxcs9vjeqs6s)" height="73.6094" id="Ring" style="stroke:#A80036;stroke-width:1.5;" width="145" x="2759" y="925"/><ellipse cx="2814.75" cy="941" fill="#ADD1B2" rx="11" ry="11" style="stroke:#A80036;stroke-width:1.0;"/><path d="M2817.0938,936.6719 C2816.1563,936.2344 2815.5625,936.0938 2814.6875,936.0938 C2812.0625,936.0938 2810.0625,938.1719 2810.0625,940.8906 L2810.0625,942.0156 C2810.0625,944.5938 2812.1719,946.4844 2815.0625,946.4844 C2816.2813,946.4844 2817.4375,946.1875 2818.1875,945.6406 C2818.7656,945.2344 2819.0938,944.7813 2819.0938,944.3906 C2819.0938,943.9375 2818.7031,943.5469 2818.2344,943.5469 C2818.0156,943.5469 2817.8125,943.625 2817.625,943.8125 C2817.1719,944.2969 2817.1719,944.2969 2816.9844,944.3906 C2816.5625,944.6563 2815.875,944.7813 2815.1094,944.7813 C2813.0625,944.7813 2811.7656,943.6875 2811.7656,941.9844 L2811.7656,940.8906 C2811.7656,939.1094 2813.0156,937.7969 2814.75,937.7969 C2815.3281,937.7969 2815.9375,937.9531 2816.4063,938.2031 C2816.8906,938.4844 2817.0625,938.7031 2817.1563,939.1094 C2817.2188,939.5156 2817.25,939.6406 2817.3906,939.7656 C2817.5313,939.9063 2817.7656,940.0156 2817.9844,940.0156 C2818.25,940.0156 2818.5156,939.875 2818.6875,939.6563 C2818.7969,939.5 2818.8281,939.3125 2818.8281,938.8906 L2818.8281,937.4688 C2818.8281,937.0313 2818.8125,936.9063 2818.7188,936.75 C2818.5625,936.4844 2818.2813,936.3438 2817.9844,936.3438 C2817.6875,936.3438 2817.4844,936.4375 2817.2656,936.75 L2817.0938,936.6719 Z " fill="#000000"/><text fill="#000000" font-family="sans-serif" font-size="12" lengthAdjust="spacing" textLength="25" x="2835.25" y="945.1543">Ring</text><line style="stroke:#A80036;stroke-width:1.5;" x1="2760" x2="2903" y1="957" y2="957"/><text fill="#000000" font-family="sans-serif" font-size="11" lengthAdjust="spacing" textLength="99" x="2765" y="971.2104">static int m_rings;</text><text fill="#000000" font-family="sans-serif" font-size="11" lengthAdjust="spacing" textLength="133" x="2765" y="984.0151">static bool m_registerit;</text><line style="stroke:#A80036;stroke-width:1.5;" x1="2760" x2="2903" y1="990.6094" y2="990.6094"/><!--MD5=[bf5ccc8760fe0a17503095764e66b629]
class Emerald--><rect codeLine="112" fill="#FEFECE" filter="url(#f1jxcs9vjeqs6s)" height="73.6094" id="Emerald" style="stroke:#A80036;stroke-width:1.5;" width="145" x="2939" y="925"/><ellipse cx="2982.8" cy="941" fill="#ADD1B2" rx="11" ry="11" style="stroke:#A80036;stroke-width:1.0;"/><path d="M2985.1438,936.6719 C2984.2063,936.2344 2983.6125,936.0938 2982.7375,936.0938 C2980.1125,936.0938 2978.1125,938.1719 2978.1125,940.8906 L2978.1125,942.0156 C2978.1125,944.5938 2980.2219,946.4844 2983.1125,946.4844 C2984.3313,946.4844 2985.4875,946.1875 2986.2375,945.6406 C2986.8156,945.2344 2987.1438,944.7813 2987.1438,944.3906 C2987.1438,943.9375 2986.7531,943.5469 2986.2844,943.5469 C2986.0656,943.5469 2985.8625,943.625 2985.675,943.8125 C2985.2219,944.2969 2985.2219,944.2969 2985.0344,944.3906 C2984.6125,944.6563 2983.925,944.7813 2983.1594,944.7813 C2981.1125,944.7813 2979.8156,943.6875 2979.8156,941.9844 L2979.8156,940.8906 C2979.8156,939.1094 2981.0656,937.7969 2982.8,937.7969 C2983.3781,937.7969 2983.9875,937.9531 2984.4563,938.2031 C2984.9406,938.4844 2985.1125,938.7031 2985.2063,939.1094 C2985.2688,939.5156 2985.3,939.6406 2985.4406,939.7656 C2985.5813,939.9063 2985.8156,940.0156 2986.0344,940.0156 C2986.3,940.0156 2986.5656,939.875 2986.7375,939.6563 C2986.8469,939.5 2986.8781,939.3125 2986.8781,938.8906 L2986.8781,937.4688 C2986.8781,937.0313 2986.8625,936.9063 2986.7688,936.75 C2986.6125,936.4844 2986.3313,936.3438 2986.0344,936.3438 C2985.7375,936.3438 2985.5344,936.4375 2985.3156,936.75 L2985.1438,936.6719 Z " fill="#000000"/><text fill="#000000" font-family="sans-serif" font-size="12" lengthAdjust="spacing" textLength="49" x="3003.2" y="945.1543">Emerald</text><line style="stroke:#A80036;stroke-width:1.5;" x1="2940" x2="3083" y1="957" y2="957"/><text fill="#000000" font-family="sans-serif" font-size="11" lengthAdjust="spacing" textLength="120" x="2945" y="971.2104">static int m_emerald;</text><text fill="#000000" font-family="sans-serif" font-size="11" lengthAdjust="spacing" textLength="133" x="2945" y="984.0151">static bool m_registerit;</text><line style="stroke:#A80036;stroke-width:1.5;" x1="2940" x2="3083" y1="990.6094" y2="990.6094"/><!--MD5=[257b80d95d48ba5c1b79d737ac895748]
class Spikes--><rect codeLine="118" fill="#FEFECE" filter="url(#f1jxcs9vjeqs6s)" height="60.8047" id="Spikes" style="stroke:#A80036;stroke-width:1.5;" width="145" x="2219" y="931.5"/><ellipse cx="2266.75" cy="947.5" fill="#ADD1B2" rx="11" ry="11" style="stroke:#A80036;stroke-width:1.0;"/><path d="M2269.0938,943.1719 C2268.1563,942.7344 2267.5625,942.5938 2266.6875,942.5938 C2264.0625,942.5938 2262.0625,944.6719 2262.0625,947.3906 L2262.0625,948.5156 C2262.0625,951.0938 2264.1719,952.9844 2267.0625,952.9844 C2268.2813,952.9844 2269.4375,952.6875 2270.1875,952.1406 C2270.7656,951.7344 2271.0938,951.2813 2271.0938,950.8906 C2271.0938,950.4375 2270.7031,950.0469 2270.2344,950.0469 C2270.0156,950.0469 2269.8125,950.125 2269.625,950.3125 C2269.1719,950.7969 2269.1719,950.7969 2268.9844,950.8906 C2268.5625,951.1563 2267.875,951.2813 2267.1094,951.2813 C2265.0625,951.2813 2263.7656,950.1875 2263.7656,948.4844 L2263.7656,947.3906 C2263.7656,945.6094 2265.0156,944.2969 2266.75,944.2969 C2267.3281,944.2969 2267.9375,944.4531 2268.4063,944.7031 C2268.8906,944.9844 2269.0625,945.2031 2269.1563,945.6094 C2269.2188,946.0156 2269.25,946.1406 2269.3906,946.2656 C2269.5313,946.4063 2269.7656,946.5156 2269.9844,946.5156 C2270.25,946.5156 2270.5156,946.375 2270.6875,946.1563 C2270.7969,946 2270.8281,945.8125 2270.8281,945.3906 L2270.8281,943.9688 C2270.8281,943.5313 2270.8125,943.4063 2270.7188,943.25 C2270.5625,942.9844 2270.2813,942.8438 2269.9844,942.8438 C2269.6875,942.8438 2269.4844,942.9375 2269.2656,943.25 L2269.0938,943.1719 Z " fill="#000000"/><text fill="#000000" font-family="sans-serif" font-size="12" lengthAdjust="spacing" textLength="41" x="2287.25" y="951.6543">Spikes</text><line style="stroke:#A80036;stroke-width:1.5;" x1="2220" x2="2363" y1="963.5" y2="963.5"/><text fill="#000000" font-family="sans-serif" font-size="11" lengthAdjust="spacing" textLength="133" x="2225" y="977.7104">static bool m_registerit;</text><line style="stroke:#A80036;stroke-width:1.5;" x1="2220" x2="2363" y1="984.3047" y2="984.3047"/><!--MD5=[82fe06f8d47cd56f9cb62ee2ed7a8b2c]
class Springboard--><rect codeLine="123" fill="#FEFECE" filter="url(#f1jxcs9vjeqs6s)" height="60.8047" id="Springboard" style="stroke:#A80036;stroke-width:1.5;" width="145" x="2399" y="931.5"/><ellipse cx="2431.1" cy="947.5" fill="#ADD1B2" rx="11" ry="11" style="stroke:#A80036;stroke-width:1.0;"/><path d="M2433.4438,943.1719 C2432.5063,942.7344 2431.9125,942.5938 2431.0375,942.5938 C2428.4125,942.5938 2426.4125,944.6719 2426.4125,947.3906 L2426.4125,948.5156 C2426.4125,951.0938 2428.5219,952.9844 2431.4125,952.9844 C2432.6313,952.9844 2433.7875,952.6875 2434.5375,952.1406 C2435.1156,951.7344 2435.4438,951.2813 2435.4438,950.8906 C2435.4438,950.4375 2435.0531,950.0469 2434.5844,950.0469 C2434.3656,950.0469 2434.1625,950.125 2433.975,950.3125 C2433.5219,950.7969 2433.5219,950.7969 2433.3344,950.8906 C2432.9125,951.1563 2432.225,951.2813 2431.4594,951.2813 C2429.4125,951.2813 2428.1156,950.1875 2428.1156,948.4844 L2428.1156,947.3906 C2428.1156,945.6094 2429.3656,944.2969 2431.1,944.2969 C2431.6781,944.2969 2432.2875,944.4531 2432.7563,944.7031 C2433.2406,944.9844 2433.4125,945.2031 2433.5063,945.6094 C2433.5688,946.0156 2433.6,946.1406 2433.7406,946.2656 C2433.8813,946.4063 2434.1156,946.5156 2434.3344,946.5156 C2434.6,946.5156 2434.8656,946.375 2435.0375,946.1563 C2435.1469,946 2435.1781,945.8125 2435.1781,945.3906 L2435.1781,943.9688 C2435.1781,943.5313 2435.1625,943.4063 2435.0688,943.25 C2434.9125,942.9844 2434.6313,942.8438 2434.3344,942.8438 C2434.0375,942.8438 2433.8344,942.9375 2433.6156,943.25 L2433.4438,943.1719 Z " fill="#000000"/><text fill="#000000" font-family="sans-serif" font-size="12" lengthAdjust="spacing" textLength="75" x="2448.9" y="951.6543">Springboard</text><line style="stroke:#A80036;stroke-width:1.5;" x1="2400" x2="2543" y1="963.5" y2="963.5"/><text fill="#000000" font-family="sans-serif" font-size="11" lengthAdjust="spacing" textLength="133" x="2405" y="977.7104">static bool m_registerit;</text><line style="stroke:#A80036;stroke-width:1.5;" x1="2400" x2="2543" y1="984.3047" y2="984.3047"/><!--MD5=[2cb47ba637a0d19583e6199456f6ad0b]
class Player--><rect codeLine="128" fill="#FEFECE" filter="url(#f1jxcs9vjeqs6s)" height="278.4844" id="Player" style="stroke:#A80036;stroke-width:1.5;" width="232" x="556.5" y="581"/><ellipse cx="650.25" cy="597" fill="#ADD1B2" rx="11" ry="11" style="stroke:#A80036;stroke-width:1.0;"/><path d="M652.5938,592.6719 C651.6563,592.2344 651.0625,592.0938 650.1875,592.0938 C647.5625,592.0938 645.5625,594.1719 645.5625,596.8906 L645.5625,598.0156 C645.5625,600.5938 647.6719,602.4844 650.5625,602.4844 C651.7813,602.4844 652.9375,602.1875 653.6875,601.6406 C654.2656,601.2344 654.5938,600.7813 654.5938,600.3906 C654.5938,599.9375 654.2031,599.5469 653.7344,599.5469 C653.5156,599.5469 653.3125,599.625 653.125,599.8125 C652.6719,600.2969 652.6719,600.2969 652.4844,600.3906 C652.0625,600.6563 651.375,600.7813 650.6094,600.7813 C648.5625,600.7813 647.2656,599.6875 647.2656,597.9844 L647.2656,596.8906 C647.2656,595.1094 648.5156,593.7969 650.25,593.7969 C650.8281,593.7969 651.4375,593.9531 651.9063,594.2031 C652.3906,594.4844 652.5625,594.7031 652.6563,595.1094 C652.7188,595.5156 652.75,595.6406 652.8906,595.7656 C653.0313,595.9063 653.2656,596.0156 653.4844,596.0156 C653.75,596.0156 654.0156,595.875 654.1875,595.6563 C654.2969,595.5 654.3281,595.3125 654.3281,594.8906 L654.3281,593.4688 C654.3281,593.0313 654.3125,592.9063 654.2188,592.75 C654.0625,592.4844 653.7813,592.3438 653.4844,592.3438 C653.1875,592.3438 652.9844,592.4375 652.7656,592.75 L652.5938,592.6719 Z " fill="#000000"/><text fill="#000000" font-family="sans-serif" font-size="12" lengthAdjust="spacing" textLength="36" x="670.75" y="601.1543">Player</text><line style="stroke:#A80036;stroke-width:1.5;" x1="557.5" x2="787.5" y1="613" y2="613"/><text fill="#000000" font-family="sans-serif" font-size="11" lengthAdjust="spacing" textLength="220" x="562.5" y="627.2104">bool m_jumpModeSpringboard = false;</text><text fill="#000000" font-family="sans-serif" font-size="11" lengthAdjust="spacing" textLength="121" x="562.5" y="640.0151">bool m_jump = false;</text><text fill="#000000" font-family="sans-serif" font-size="11" lengthAdjust="spacing" textLength="139" x="562.5" y="652.8198">bool m_onCircle = false;</text><text fill="#000000" font-family="sans-serif" font-size="11" lengthAdjust="spacing" textLength="150" x="562.5" y="665.6245">bool m_finishLoop = false;</text><text fill="#000000" font-family="sans-serif" font-size="11" lengthAdjust="spacing" textLength="182" x="562.5" y="678.4292">bool m_ballSpeedMode = false;</text><text fill="#000000" font-family="sans-serif" font-size="11" lengthAdjust="spacing" textLength="133" x="562.5" y="691.2339">bool m_isDead = false;</text><text fill="#000000" font-family="sans-serif" font-size="11" lengthAdjust="spacing" textLength="135" x="562.5" y="704.0386">bool m_killBoss = false;</text><text fill="#000000" font-family="sans-serif" font-size="11" lengthAdjust="spacing" textLength="171" x="562.5" y="716.8433">bool m_touchEmerald = false;</text><text fill="#000000" font-family="sans-serif" font-size="11" lengthAdjust="spacing" textLength="0" x="566.5" y="729.6479"/><text fill="#000000" font-family="sans-serif" font-size="11" lengthAdjust="spacing" textLength="170" x="562.5" y="742.4526">Location m_lastCircleLocation;</text><text fill="#000000" font-family="sans-serif" font-size="11" lengthAdjust="spacing" textLength="127" x="562.5" y="755.2573">double m_angleCircle;</text><text fill="#000000" font-family="sans-serif" font-size="11" lengthAdjust="spacing" textLength="123" x="562.5" y="768.062">double m_angleJump;</text><text fill="#000000" font-family="sans-serif" font-size="11" lengthAdjust="spacing" textLength="0" x="566.5" y="780.8667"/><text fill="#000000" font-family="sans-serif" font-size="11" lengthAdjust="spacing" textLength="90" x="562.5" y="793.6714">static int m_life;</text><text fill="#000000" font-family="sans-serif" font-size="11" lengthAdjust="spacing" textLength="102" x="562.5" y="806.4761">static int m_heart;</text><text fill="#000000" font-family="sans-serif" font-size="11" lengthAdjust="spacing" textLength="154" x="562.5" y="819.2808">static int m_collectedRings;</text><text fill="#000000" font-family="sans-serif" font-size="11" lengthAdjust="spacing" textLength="0" x="566.5" y="832.0854"/><text fill="#000000" font-family="sans-serif" font-size="11" lengthAdjust="spacing" textLength="133" x="562.5" y="844.8901">static bool m_registerit;</text><line style="stroke:#A80036;stroke-width:1.5;" x1="557.5" x2="787.5" y1="851.4844" y2="851.4844"/><!--MD5=[418d65a8e29a138ba081371f29466a9d]
class HorizontalPlattform--><rect codeLine="150" fill="#FEFECE" filter="url(#f1jxcs9vjeqs6s)" height="86.4141" id="HorizontalPlattform" style="stroke:#A80036;stroke-width:1.5;" width="227" x="824" y="677"/><ellipse cx="876.75" cy="693" fill="#ADD1B2" rx="11" ry="11" style="stroke:#A80036;stroke-width:1.0;"/><path d="M879.0938,688.6719 C878.1563,688.2344 877.5625,688.0938 876.6875,688.0938 C874.0625,688.0938 872.0625,690.1719 872.0625,692.8906 L872.0625,694.0156 C872.0625,696.5938 874.1719,698.4844 877.0625,698.4844 C878.2813,698.4844 879.4375,698.1875 880.1875,697.6406 C880.7656,697.2344 881.0938,696.7813 881.0938,696.3906 C881.0938,695.9375 880.7031,695.5469 880.2344,695.5469 C880.0156,695.5469 879.8125,695.625 879.625,695.8125 C879.1719,696.2969 879.1719,696.2969 878.9844,696.3906 C878.5625,696.6563 877.875,696.7813 877.1094,696.7813 C875.0625,696.7813 873.7656,695.6875 873.7656,693.9844 L873.7656,692.8906 C873.7656,691.1094 875.0156,689.7969 876.75,689.7969 C877.3281,689.7969 877.9375,689.9531 878.4063,690.2031 C878.8906,690.4844 879.0625,690.7031 879.1563,691.1094 C879.2188,691.5156 879.25,691.6406 879.3906,691.7656 C879.5313,691.9063 879.7656,692.0156 879.9844,692.0156 C880.25,692.0156 880.5156,691.875 880.6875,691.6563 C880.7969,691.5 880.8281,691.3125 880.8281,690.8906 L880.8281,689.4688 C880.8281,689.0313 880.8125,688.9063 880.7188,688.75 C880.5625,688.4844 880.2813,688.3438 879.9844,688.3438 C879.6875,688.3438 879.4844,688.4375 879.2656,688.75 L879.0938,688.6719 Z " fill="#000000"/><text fill="#000000" font-family="sans-serif" font-size="12" lengthAdjust="spacing" textLength="113" x="897.25" y="697.1543">HorizontalPlattform</text><line style="stroke:#A80036;stroke-width:1.5;" x1="825" x2="1050" y1="709" y2="709"/><text fill="#000000" font-family="sans-serif" font-size="11" lengthAdjust="spacing" textLength="215" x="830" y="723.2104">shared_ptr&lt;MovingObject&gt; m_player;</text><text fill="#000000" font-family="sans-serif" font-size="11" lengthAdjust="spacing" textLength="63" x="830" y="736.0151">int m_rand;</text><text fill="#000000" font-family="sans-serif" font-size="11" lengthAdjust="spacing" textLength="133" x="830" y="748.8198">static bool m_registerit;</text><line style="stroke:#A80036;stroke-width:1.5;" x1="825" x2="1050" y1="755.4141" y2="755.4141"/><!--MD5=[1df27ae6e4e5208d98e0cdb7508b69b8]
class VerticalPlattform--><rect codeLine="157" fill="#FEFECE" filter="url(#f1jxcs9vjeqs6s)" height="86.4141" id="VerticalPlattform" style="stroke:#A80036;stroke-width:1.5;" width="227" x="1086" y="677"/><ellipse cx="1146.75" cy="693" fill="#ADD1B2" rx="11" ry="11" style="stroke:#A80036;stroke-width:1.0;"/><path d="M1149.0938,688.6719 C1148.1563,688.2344 1147.5625,688.0938 1146.6875,688.0938 C1144.0625,688.0938 1142.0625,690.1719 1142.0625,692.8906 L1142.0625,694.0156 C1142.0625,696.5938 1144.1719,698.4844 1147.0625,698.4844 C1148.2813,698.4844 1149.4375,698.1875 1150.1875,697.6406 C1150.7656,697.2344 1151.0938,696.7813 1151.0938,696.3906 C1151.0938,695.9375 1150.7031,695.5469 1150.2344,695.5469 C1150.0156,695.5469 1149.8125,695.625 1149.625,695.8125 C1149.1719,696.2969 1149.1719,696.2969 1148.9844,696.3906 C1148.5625,696.6563 1147.875,696.7813 1147.1094,696.7813 C1145.0625,696.7813 1143.7656,695.6875 1143.7656,693.9844 L1143.7656,692.8906 C1143.7656,691.1094 1145.0156,689.7969 1146.75,689.7969 C1147.3281,689.7969 1147.9375,689.9531 1148.4063,690.2031 C1148.8906,690.4844 1149.0625,690.7031 1149.1563,691.1094 C1149.2188,691.5156 1149.25,691.6406 1149.3906,691.7656 C1149.5313,691.9063 1149.7656,692.0156 1149.9844,692.0156 C1150.25,692.0156 1150.5156,691.875 1150.6875,691.6563 C1150.7969,691.5 1150.8281,691.3125 1150.8281,690.8906 L1150.8281,689.4688 C1150.8281,689.0313 1150.8125,688.9063 1150.7188,688.75 C1150.5625,688.4844 1150.2813,688.3438 1149.9844,688.3438 C1149.6875,688.3438 1149.4844,688.4375 1149.2656,688.75 L1149.0938,688.6719 Z " fill="#000000"/><text fill="#000000" font-family="sans-serif" font-size="12" lengthAdjust="spacing" textLength="97" x="1167.25" y="697.1543">VerticalPlattform</text><line style="stroke:#A80036;stroke-width:1.5;" x1="1087" x2="1312" y1="709" y2="709"/><text fill="#000000" font-family="sans-serif" font-size="11" lengthAdjust="spacing" textLength="215" x="1092" y="723.2104">shared_ptr&lt;MovingObject&gt; m_player;</text><text fill="#000000" font-family="sans-serif" font-size="11" lengthAdjust="spacing" textLength="63" x="1092" y="736.0151">int m_rand;</text><text fill="#000000" font-family="sans-serif" font-size="11" lengthAdjust="spacing" textLength="133" x="1092" y="748.8198">static bool m_registerit;</text><line style="stroke:#A80036;stroke-width:1.5;" x1="1087" x2="1312" y1="755.4141" y2="755.4141"/><!--MD5=[80c532e980642ebbe770e7ed91e479d0]
class Enemy--><rect codeLine="164" fill="#FEFECE" filter="url(#f1jxcs9vjeqs6s)" height="60.8047" id="Enemy" style="stroke:#A80036;stroke-width:1.5;" width="227" x="1348" y="689.5"/><ellipse cx="1437.25" cy="705.5" fill="#ADD1B2" rx="11" ry="11" style="stroke:#A80036;stroke-width:1.0;"/><path d="M1439.5938,701.1719 C1438.6563,700.7344 1438.0625,700.5938 1437.1875,700.5938 C1434.5625,700.5938 1432.5625,702.6719 1432.5625,705.3906 L1432.5625,706.5156 C1432.5625,709.0938 1434.6719,710.9844 1437.5625,710.9844 C1438.7813,710.9844 1439.9375,710.6875 1440.6875,710.1406 C1441.2656,709.7344 1441.5938,709.2813 1441.5938,708.8906 C1441.5938,708.4375 1441.2031,708.0469 1440.7344,708.0469 C1440.5156,708.0469 1440.3125,708.125 1440.125,708.3125 C1439.6719,708.7969 1439.6719,708.7969 1439.4844,708.8906 C1439.0625,709.1563 1438.375,709.2813 1437.6094,709.2813 C1435.5625,709.2813 1434.2656,708.1875 1434.2656,706.4844 L1434.2656,705.3906 C1434.2656,703.6094 1435.5156,702.2969 1437.25,702.2969 C1437.8281,702.2969 1438.4375,702.4531 1438.9063,702.7031 C1439.3906,702.9844 1439.5625,703.2031 1439.6563,703.6094 C1439.7188,704.0156 1439.75,704.1406 1439.8906,704.2656 C1440.0313,704.4063 1440.2656,704.5156 1440.4844,704.5156 C1440.75,704.5156 1441.0156,704.375 1441.1875,704.1563 C1441.2969,704 1441.3281,703.8125 1441.3281,703.3906 L1441.3281,701.9688 C1441.3281,701.5313 1441.3125,701.4063 1441.2188,701.25 C1441.0625,700.9844 1440.7813,700.8438 1440.4844,700.8438 C1440.1875,700.8438 1439.9844,700.9375 1439.7656,701.25 L1439.5938,701.1719 Z " fill="#000000"/><text fill="#000000" font-family="sans-serif" font-size="12" lengthAdjust="spacing" textLength="40" x="1457.75" y="709.6543">Enemy</text><line style="stroke:#A80036;stroke-width:1.5;" x1="1349" x2="1574" y1="721.5" y2="721.5"/><text fill="#000000" font-family="sans-serif" font-size="11" lengthAdjust="spacing" textLength="215" x="1354" y="735.7104">shared_ptr&lt;MovingObject&gt; m_player;</text><line style="stroke:#A80036;stroke-width:1.5;" x1="1349" x2="1574" y1="742.3047" y2="742.3047"/><!--MD5=[e048e10024d800c3db9a0c8f09bac515]
class EnemySlow--><rect codeLine="169" fill="#FEFECE" filter="url(#f1jxcs9vjeqs6s)" height="60.8047" id="EnemySlow" style="stroke:#A80036;stroke-width:1.5;" width="145" x="1139" y="931.5"/><ellipse cx="1173.8" cy="947.5" fill="#ADD1B2" rx="11" ry="11" style="stroke:#A80036;stroke-width:1.0;"/><path d="M1176.1438,943.1719 C1175.2063,942.7344 1174.6125,942.5938 1173.7375,942.5938 C1171.1125,942.5938 1169.1125,944.6719 1169.1125,947.3906 L1169.1125,948.5156 C1169.1125,951.0938 1171.2219,952.9844 1174.1125,952.9844 C1175.3313,952.9844 1176.4875,952.6875 1177.2375,952.1406 C1177.8156,951.7344 1178.1438,951.2813 1178.1438,950.8906 C1178.1438,950.4375 1177.7531,950.0469 1177.2844,950.0469 C1177.0656,950.0469 1176.8625,950.125 1176.675,950.3125 C1176.2219,950.7969 1176.2219,950.7969 1176.0344,950.8906 C1175.6125,951.1563 1174.925,951.2813 1174.1594,951.2813 C1172.1125,951.2813 1170.8156,950.1875 1170.8156,948.4844 L1170.8156,947.3906 C1170.8156,945.6094 1172.0656,944.2969 1173.8,944.2969 C1174.3781,944.2969 1174.9875,944.4531 1175.4563,944.7031 C1175.9406,944.9844 1176.1125,945.2031 1176.2063,945.6094 C1176.2688,946.0156 1176.3,946.1406 1176.4406,946.2656 C1176.5813,946.4063 1176.8156,946.5156 1177.0344,946.5156 C1177.3,946.5156 1177.5656,946.375 1177.7375,946.1563 C1177.8469,946 1177.8781,945.8125 1177.8781,945.3906 L1177.8781,943.9688 C1177.8781,943.5313 1177.8625,943.4063 1177.7688,943.25 C1177.6125,942.9844 1177.3313,942.8438 1177.0344,942.8438 C1176.7375,942.8438 1176.5344,942.9375 1176.3156,943.25 L1176.1438,943.1719 Z " fill="#000000"/><text fill="#000000" font-family="sans-serif" font-size="12" lengthAdjust="spacing" textLength="69" x="1192.2" y="951.6543">EnemySlow</text><line style="stroke:#A80036;stroke-width:1.5;" x1="1140" x2="1283" y1="963.5" y2="963.5"/><text fill="#000000" font-family="sans-serif" font-size="11" lengthAdjust="spacing" textLength="133" x="1145" y="977.7104">static bool m_registerit;</text><line style="stroke:#A80036;stroke-width:1.5;" x1="1140" x2="1283" y1="984.3047" y2="984.3047"/><!--MD5=[8a51e8085c7a4d0af7b30b987da15308]
class EnemyFast--><rect codeLine="174" fill="#FEFECE" filter="url(#f1jxcs9vjeqs6s)" height="60.8047" id="EnemyFast" style="stroke:#A80036;stroke-width:1.5;" width="145" x="1319" y="931.5"/><ellipse cx="1355.6" cy="947.5" fill="#ADD1B2" rx="11" ry="11" style="stroke:#A80036;stroke-width:1.0;"/><path d="M1357.9438,943.1719 C1357.0063,942.7344 1356.4125,942.5938 1355.5375,942.5938 C1352.9125,942.5938 1350.9125,944.6719 1350.9125,947.3906 L1350.9125,948.5156 C1350.9125,951.0938 1353.0219,952.9844 1355.9125,952.9844 C1357.1313,952.9844 1358.2875,952.6875 1359.0375,952.1406 C1359.6156,951.7344 1359.9438,951.2813 1359.9438,950.8906 C1359.9438,950.4375 1359.5531,950.0469 1359.0844,950.0469 C1358.8656,950.0469 1358.6625,950.125 1358.475,950.3125 C1358.0219,950.7969 1358.0219,950.7969 1357.8344,950.8906 C1357.4125,951.1563 1356.725,951.2813 1355.9594,951.2813 C1353.9125,951.2813 1352.6156,950.1875 1352.6156,948.4844 L1352.6156,947.3906 C1352.6156,945.6094 1353.8656,944.2969 1355.6,944.2969 C1356.1781,944.2969 1356.7875,944.4531 1357.2563,944.7031 C1357.7406,944.9844 1357.9125,945.2031 1358.0063,945.6094 C1358.0688,946.0156 1358.1,946.1406 1358.2406,946.2656 C1358.3813,946.4063 1358.6156,946.5156 1358.8344,946.5156 C1359.1,946.5156 1359.3656,946.375 1359.5375,946.1563 C1359.6469,946 1359.6781,945.8125 1359.6781,945.3906 L1359.6781,943.9688 C1359.6781,943.5313 1359.6625,943.4063 1359.5688,943.25 C1359.4125,942.9844 1359.1313,942.8438 1358.8344,942.8438 C1358.5375,942.8438 1358.3344,942.9375 1358.1156,943.25 L1357.9438,943.1719 Z " fill="#000000"/><text fill="#000000" font-family="sans-serif" font-size="12" lengthAdjust="spacing" textLength="65" x="1374.4" y="951.6543">EnemyFast</text><line style="stroke:#A80036;stroke-width:1.5;" x1="1320" x2="1463" y1="963.5" y2="963.5"/><text fill="#000000" font-family="sans-serif" font-size="11" lengthAdjust="spacing" textLength="133" x="1325" y="977.7104">static bool m_registerit;</text><line style="stroke:#A80036;stroke-width:1.5;" x1="1320" x2="1463" y1="984.3047" y2="984.3047"/><!--MD5=[50cdb932a9a3968e2a6da4b7868254f5]
class Boss--><rect codeLine="179" fill="#FEFECE" filter="url(#f1jxcs9vjeqs6s)" height="86.4141" id="Boss" style="stroke:#A80036;stroke-width:1.5;" width="145" x="1499" y="919"/><ellipse cx="1552.25" cy="935" fill="#ADD1B2" rx="11" ry="11" style="stroke:#A80036;stroke-width:1.0;"/><path d="M1554.5938,930.6719 C1553.6563,930.2344 1553.0625,930.0938 1552.1875,930.0938 C1549.5625,930.0938 1547.5625,932.1719 1547.5625,934.8906 L1547.5625,936.0156 C1547.5625,938.5938 1549.6719,940.4844 1552.5625,940.4844 C1553.7813,940.4844 1554.9375,940.1875 1555.6875,939.6406 C1556.2656,939.2344 1556.5938,938.7813 1556.5938,938.3906 C1556.5938,937.9375 1556.2031,937.5469 1555.7344,937.5469 C1555.5156,937.5469 1555.3125,937.625 1555.125,937.8125 C1554.6719,938.2969 1554.6719,938.2969 1554.4844,938.3906 C1554.0625,938.6563 1553.375,938.7813 1552.6094,938.7813 C1550.5625,938.7813 1549.2656,937.6875 1549.2656,935.9844 L1549.2656,934.8906 C1549.2656,933.1094 1550.5156,931.7969 1552.25,931.7969 C1552.8281,931.7969 1553.4375,931.9531 1553.9063,932.2031 C1554.3906,932.4844 1554.5625,932.7031 1554.6563,933.1094 C1554.7188,933.5156 1554.75,933.6406 1554.8906,933.7656 C1555.0313,933.9063 1555.2656,934.0156 1555.4844,934.0156 C1555.75,934.0156 1556.0156,933.875 1556.1875,933.6563 C1556.2969,933.5 1556.3281,933.3125 1556.3281,932.8906 L1556.3281,931.4688 C1556.3281,931.0313 1556.3125,930.9063 1556.2188,930.75 C1556.0625,930.4844 1555.7813,930.3438 1555.4844,930.3438 C1555.1875,930.3438 1554.9844,930.4375 1554.7656,930.75 L1554.5938,930.6719 Z " fill="#000000"/><text fill="#000000" font-family="sans-serif" font-size="12" lengthAdjust="spacing" textLength="30" x="1572.75" y="939.1543">Boss</text><line style="stroke:#A80036;stroke-width:1.5;" x1="1500" x2="1643" y1="951" y2="951"/><text fill="#000000" font-family="sans-serif" font-size="11" lengthAdjust="spacing" textLength="90" x="1505" y="965.2104">static int m_life;</text><text fill="#000000" font-family="sans-serif" font-size="11" lengthAdjust="spacing" textLength="133" x="1505" y="978.0151">static bool m_registerit;</text><text fill="#000000" font-family="sans-serif" font-size="11" lengthAdjust="spacing" textLength="130" x="1505" y="990.8198">static bool m_shooting;</text><line style="stroke:#A80036;stroke-width:1.5;" x1="1500" x2="1643" y1="997.4141" y2="997.4141"/><!--MD5=[2824395d61b6e4620487641a86c41e67]
class Bullet--><rect codeLine="186" fill="#FEFECE" filter="url(#f1jxcs9vjeqs6s)" height="86.4141" id="Bullet" style="stroke:#A80036;stroke-width:1.5;" width="236" x="1610.5" y="677"/><ellipse cx="1707.75" cy="693" fill="#ADD1B2" rx="11" ry="11" style="stroke:#A80036;stroke-width:1.0;"/><path d="M1710.0938,688.6719 C1709.1563,688.2344 1708.5625,688.0938 1707.6875,688.0938 C1705.0625,688.0938 1703.0625,690.1719 1703.0625,692.8906 L1703.0625,694.0156 C1703.0625,696.5938 1705.1719,698.4844 1708.0625,698.4844 C1709.2813,698.4844 1710.4375,698.1875 1711.1875,697.6406 C1711.7656,697.2344 1712.0938,696.7813 1712.0938,696.3906 C1712.0938,695.9375 1711.7031,695.5469 1711.2344,695.5469 C1711.0156,695.5469 1710.8125,695.625 1710.625,695.8125 C1710.1719,696.2969 1710.1719,696.2969 1709.9844,696.3906 C1709.5625,696.6563 1708.875,696.7813 1708.1094,696.7813 C1706.0625,696.7813 1704.7656,695.6875 1704.7656,693.9844 L1704.7656,692.8906 C1704.7656,691.1094 1706.0156,689.7969 1707.75,689.7969 C1708.3281,689.7969 1708.9375,689.9531 1709.4063,690.2031 C1709.8906,690.4844 1710.0625,690.7031 1710.1563,691.1094 C1710.2188,691.5156 1710.25,691.6406 1710.3906,691.7656 C1710.5313,691.9063 1710.7656,692.0156 1710.9844,692.0156 C1711.25,692.0156 1711.5156,691.875 1711.6875,691.6563 C1711.7969,691.5 1711.8281,691.3125 1711.8281,690.8906 L1711.8281,689.4688 C1711.8281,689.0313 1711.8125,688.9063 1711.7188,688.75 C1711.5625,688.4844 1711.2813,688.3438 1710.9844,688.3438 C1710.6875,688.3438 1710.4844,688.4375 1710.2656,688.75 L1710.0938,688.6719 Z " fill="#000000"/><text fill="#000000" font-family="sans-serif" font-size="12" lengthAdjust="spacing" textLength="33" x="1728.25" y="697.1543">Bullet</text><line style="stroke:#A80036;stroke-width:1.5;" x1="1611.5" x2="1845.5" y1="709" y2="709"/><text fill="#000000" font-family="sans-serif" font-size="11" lengthAdjust="spacing" textLength="224" x="1616.5" y="723.2104">Rotation m_rotation = Rotation::Default;</text><text fill="#000000" font-family="sans-serif" font-size="11" lengthAdjust="spacing" textLength="215" x="1616.5" y="736.0151">shared_ptr&lt;MovingObject&gt; m_player;</text><text fill="#000000" font-family="sans-serif" font-size="11" lengthAdjust="spacing" textLength="133" x="1616.5" y="748.8198">static bool m_registerit;</text><line style="stroke:#A80036;stroke-width:1.5;" x1="1611.5" x2="1845.5" y1="755.4141" y2="755.4141"/><!--MD5=[a7f9118cae7621dd25d25149752faef0]
class Circle--><rect codeLine="192" fill="#FEFECE" filter="url(#f1jxcs9vjeqs6s)" height="60.8047" id="Circle" style="stroke:#A80036;stroke-width:1.5;" width="145" x="2579" y="931.5"/><ellipse cx="2630.25" cy="947.5" fill="#ADD1B2" rx="11" ry="11" style="stroke:#A80036;stroke-width:1.0;"/><path d="M2632.5938,943.1719 C2631.6563,942.7344 2631.0625,942.5938 2630.1875,942.5938 C2627.5625,942.5938 2625.5625,944.6719 2625.5625,947.3906 L2625.5625,948.5156 C2625.5625,951.0938 2627.6719,952.9844 2630.5625,952.9844 C2631.7813,952.9844 2632.9375,952.6875 2633.6875,952.1406 C2634.2656,951.7344 2634.5938,951.2813 2634.5938,950.8906 C2634.5938,950.4375 2634.2031,950.0469 2633.7344,950.0469 C2633.5156,950.0469 2633.3125,950.125 2633.125,950.3125 C2632.6719,950.7969 2632.6719,950.7969 2632.4844,950.8906 C2632.0625,951.1563 2631.375,951.2813 2630.6094,951.2813 C2628.5625,951.2813 2627.2656,950.1875 2627.2656,948.4844 L2627.2656,947.3906 C2627.2656,945.6094 2628.5156,944.2969 2630.25,944.2969 C2630.8281,944.2969 2631.4375,944.4531 2631.9063,944.7031 C2632.3906,944.9844 2632.5625,945.2031 2632.6563,945.6094 C2632.7188,946.0156 2632.75,946.1406 2632.8906,946.2656 C2633.0313,946.4063 2633.2656,946.5156 2633.4844,946.5156 C2633.75,946.5156 2634.0156,946.375 2634.1875,946.1563 C2634.2969,946 2634.3281,945.8125 2634.3281,945.3906 L2634.3281,943.9688 C2634.3281,943.5313 2634.3125,943.4063 2634.2188,943.25 C2634.0625,942.9844 2633.7813,942.8438 2633.4844,942.8438 C2633.1875,942.8438 2632.9844,942.9375 2632.7656,943.25 L2632.5938,943.1719 Z " fill="#000000"/><text fill="#000000" font-family="sans-serif" font-size="12" lengthAdjust="spacing" textLength="34" x="2650.75" y="951.6543">Circle</text><line style="stroke:#A80036;stroke-width:1.5;" x1="2580" x2="2723" y1="963.5" y2="963.5"/><text fill="#000000" font-family="sans-serif" font-size="11" lengthAdjust="spacing" textLength="133" x="2585" y="977.7104">static bool m_registerit;</text><line style="stroke:#A80036;stroke-width:1.5;" x1="2580" x2="2723" y1="984.3047" y2="984.3047"/><!--MD5=[02f7077ed79257124e28b791f351f1d7]
class Direction--><rect codeLine="196" fill="#FEFECE" filter="url(#f1jxcs9vjeqs6s)" height="48" id="Direction" style="stroke:#A80036;stroke-width:1.5;" width="86" x="1140.5" y="103"/><ellipse cx="1155.5" cy="119" fill="#ADD1B2" rx="11" ry="11" style="stroke:#A80036;stroke-width:1.0;"/><path d="M1157.8438,114.6719 C1156.9063,114.2344 1156.3125,114.0938 1155.4375,114.0938 C1152.8125,114.0938 1150.8125,116.1719 1150.8125,118.8906 L1150.8125,120.0156 C1150.8125,122.5938 1152.9219,124.4844 1155.8125,124.4844 C1157.0313,124.4844 1158.1875,124.1875 1158.9375,123.6406 C1159.5156,123.2344 1159.8438,122.7813 1159.8438,122.3906 C1159.8438,121.9375 1159.4531,121.5469 1158.9844,121.5469 C1158.7656,121.5469 1158.5625,121.625 1158.375,121.8125 C1157.9219,122.2969 1157.9219,122.2969 1157.7344,122.3906 C1157.3125,122.6563 1156.625,122.7813 1155.8594,122.7813 C1153.8125,122.7813 1152.5156,121.6875 1152.5156,119.9844 L1152.5156,118.8906 C1152.5156,117.1094 1153.7656,115.7969 1155.5,115.7969 C1156.0781,115.7969 1156.6875,115.9531 1157.1563,116.2031 C1157.6406,116.4844 1157.8125,116.7031 1157.9063,117.1094 C1157.9688,117.5156 1158,117.6406 1158.1406,117.7656 C1158.2813,117.9063 1158.5156,118.0156 1158.7344,118.0156 C1159,118.0156 1159.2656,117.875 1159.4375,117.6563 C1159.5469,117.5 1159.5781,117.3125 1159.5781,116.8906 L1159.5781,115.4688 C1159.5781,115.0313 1159.5625,114.9063 1159.4688,114.75 C1159.3125,114.4844 1159.0313,114.3438 1158.7344,114.3438 C1158.4375,114.3438 1158.2344,114.4375 1158.0156,114.75 L1157.8438,114.6719 Z " fill="#000000"/><text fill="#000000" font-family="sans-serif" font-size="12" lengthAdjust="spacing" textLength="54" x="1169.5" y="123.1543">Direction</text><line style="stroke:#A80036;stroke-width:1.5;" x1="1141.5" x2="1225.5" y1="135" y2="135"/><line style="stroke:#A80036;stroke-width:1.5;" x1="1141.5" x2="1225.5" y1="143" y2="143"/><!--MD5=[4f1f3706c1a355a8488e154afcaed5df]
class Location--><rect codeLine="199" fill="#FEFECE" filter="url(#f1jxcs9vjeqs6s)" height="48" id="Location" style="stroke:#A80036;stroke-width:1.5;" width="82" x="148.5" y="390"/><ellipse cx="163.5" cy="406" fill="#ADD1B2" rx="11" ry="11" style="stroke:#A80036;stroke-width:1.0;"/><path d="M165.8438,401.6719 C164.9063,401.2344 164.3125,401.0938 163.4375,401.0938 C160.8125,401.0938 158.8125,403.1719 158.8125,405.8906 L158.8125,407.0156 C158.8125,409.5938 160.9219,411.4844 163.8125,411.4844 C165.0313,411.4844 166.1875,411.1875 166.9375,410.6406 C167.5156,410.2344 167.8438,409.7813 167.8438,409.3906 C167.8438,408.9375 167.4531,408.5469 166.9844,408.5469 C166.7656,408.5469 166.5625,408.625 166.375,408.8125 C165.9219,409.2969 165.9219,409.2969 165.7344,409.3906 C165.3125,409.6563 164.625,409.7813 163.8594,409.7813 C161.8125,409.7813 160.5156,408.6875 160.5156,406.9844 L160.5156,405.8906 C160.5156,404.1094 161.7656,402.7969 163.5,402.7969 C164.0781,402.7969 164.6875,402.9531 165.1563,403.2031 C165.6406,403.4844 165.8125,403.7031 165.9063,404.1094 C165.9688,404.5156 166,404.6406 166.1406,404.7656 C166.2813,404.9063 166.5156,405.0156 166.7344,405.0156 C167,405.0156 167.2656,404.875 167.4375,404.6563 C167.5469,404.5 167.5781,404.3125 167.5781,403.8906 L167.5781,402.4688 C167.5781,402.0313 167.5625,401.9063 167.4688,401.75 C167.3125,401.4844 167.0313,401.3438 166.7344,401.3438 C166.4375,401.3438 166.2344,401.4375 166.0156,401.75 L165.8438,401.6719 Z " fill="#000000"/><text fill="#000000" font-family="sans-serif" font-size="12" lengthAdjust="spacing" textLength="50" x="177.5" y="410.1543">Location</text><line style="stroke:#A80036;stroke-width:1.5;" x1="149.5" x2="229.5" y1="422" y2="422"/><line style="stroke:#A80036;stroke-width:1.5;" x1="149.5" x2="229.5" y1="430" y2="430"/><!--MD5=[61ba0ca66d1a1c02bd08c8b9838d8fcd]
class Rotation--><rect codeLine="202" fill="#FEFECE" filter="url(#f1jxcs9vjeqs6s)" height="48" id="Rotation" style="stroke:#A80036;stroke-width:1.5;" width="80" x="265.5" y="390"/><ellipse cx="280.5" cy="406" fill="#ADD1B2" rx="11" ry="11" style="stroke:#A80036;stroke-width:1.0;"/><path d="M282.8438,401.6719 C281.9063,401.2344 281.3125,401.0938 280.4375,401.0938 C277.8125,401.0938 275.8125,403.1719 275.8125,405.8906 L275.8125,407.0156 C275.8125,409.5938 277.9219,411.4844 280.8125,411.4844 C282.0313,411.4844 283.1875,411.1875 283.9375,410.6406 C284.5156,410.2344 284.8438,409.7813 284.8438,409.3906 C284.8438,408.9375 284.4531,408.5469 283.9844,408.5469 C283.7656,408.5469 283.5625,408.625 283.375,408.8125 C282.9219,409.2969 282.9219,409.2969 282.7344,409.3906 C282.3125,409.6563 281.625,409.7813 280.8594,409.7813 C278.8125,409.7813 277.5156,408.6875 277.5156,406.9844 L277.5156,405.8906 C277.5156,404.1094 278.7656,402.7969 280.5,402.7969 C281.0781,402.7969 281.6875,402.9531 282.1563,403.2031 C282.6406,403.4844 282.8125,403.7031 282.9063,404.1094 C282.9688,404.5156 283,404.6406 283.1406,404.7656 C283.2813,404.9063 283.5156,405.0156 283.7344,405.0156 C284,405.0156 284.2656,404.875 284.4375,404.6563 C284.5469,404.5 284.5781,404.3125 284.5781,403.8906 L284.5781,402.4688 C284.5781,402.0313 284.5625,401.9063 284.4688,401.75 C284.3125,401.4844 284.0313,401.3438 283.7344,401.3438 C283.4375,401.3438 283.2344,401.4375 283.0156,401.75 L282.8438,401.6719 Z " fill="#000000"/><text fill="#000000" font-family="sans-serif" font-size="12" lengthAdjust="spacing" textLength="48" x="294.5" y="410.1543">Rotation</text><line style="stroke:#A80036;stroke-width:1.5;" x1="266.5" x2="344.5" y1="422" y2="422"/><line style="stroke:#A80036;stroke-width:1.5;" x1="266.5" x2="344.5" y1="430" y2="430"/><!--MD5=[41178c8a85c8951a5fc67ad610e8f0cf]
class Collision--><rect codeLine="205" fill="#FEFECE" filter="url(#f1jxcs9vjeqs6s)" height="86.4141" id="Collision" style="stroke:#A80036;stroke-width:1.5;" width="361" x="381" y="371"/><ellipse cx="532.25" cy="387" fill="#ADD1B2" rx="11" ry="11" style="stroke:#A80036;stroke-width:1.0;"/><path d="M534.5938,382.6719 C533.6563,382.2344 533.0625,382.0938 532.1875,382.0938 C529.5625,382.0938 527.5625,384.1719 527.5625,386.8906 L527.5625,388.0156 C527.5625,390.5938 529.6719,392.4844 532.5625,392.4844 C533.7813,392.4844 534.9375,392.1875 535.6875,391.6406 C536.2656,391.2344 536.5938,390.7813 536.5938,390.3906 C536.5938,389.9375 536.2031,389.5469 535.7344,389.5469 C535.5156,389.5469 535.3125,389.625 535.125,389.8125 C534.6719,390.2969 534.6719,390.2969 534.4844,390.3906 C534.0625,390.6563 533.375,390.7813 532.6094,390.7813 C530.5625,390.7813 529.2656,389.6875 529.2656,387.9844 L529.2656,386.8906 C529.2656,385.1094 530.5156,383.7969 532.25,383.7969 C532.8281,383.7969 533.4375,383.9531 533.9063,384.2031 C534.3906,384.4844 534.5625,384.7031 534.6563,385.1094 C534.7188,385.5156 534.75,385.6406 534.8906,385.7656 C535.0313,385.9063 535.2656,386.0156 535.4844,386.0156 C535.75,386.0156 536.0156,385.875 536.1875,385.6563 C536.2969,385.5 536.3281,385.3125 536.3281,384.8906 L536.3281,383.4688 C536.3281,383.0313 536.3125,382.9063 536.2188,382.75 C536.0625,382.4844 535.7813,382.3438 535.4844,382.3438 C535.1875,382.3438 534.9844,382.4375 534.7656,382.75 L534.5938,382.6719 Z " fill="#000000"/><text fill="#000000" font-family="sans-serif" font-size="12" lengthAdjust="spacing" textLength="50" x="552.75" y="391.1543">Collision</text><line style="stroke:#A80036;stroke-width:1.5;" x1="382" x2="741" y1="403" y2="403"/><text fill="#000000" font-family="sans-serif" font-size="11" lengthAdjust="spacing" textLength="319" x="387" y="417.2104">using Key = std::pair&lt;std::type_index, std::type_index&gt;;</text><text fill="#000000" font-family="sans-serif" font-size="11" lengthAdjust="spacing" textLength="263" x="387" y="430.0151">using HitMap = std::map&lt;Key, HitFunctionPtr&gt;;</text><line style="stroke:#A80036;stroke-width:1.5;" x1="382" x2="741" y1="436.6094" y2="436.6094"/><text fill="#000000" font-family="sans-serif" font-size="11" lengthAdjust="spacing" textLength="349" x="387" y="450.8198">using HitFunctionPtr = void (*)(GameObject&amp;, GameObject&amp;);</text><!--MD5=[964f074a2dd77d134c21b891bb53e381]
class Image--><rect codeLine="211" fill="#FEFECE" filter="url(#f1jxcs9vjeqs6s)" height="86.4141" id="Image" style="stroke:#A80036;stroke-width:1.5;" width="313" x="777" y="371"/><ellipse cx="910.75" cy="387" fill="#ADD1B2" rx="11" ry="11" style="stroke:#A80036;stroke-width:1.0;"/><path d="M913.0938,382.6719 C912.1563,382.2344 911.5625,382.0938 910.6875,382.0938 C908.0625,382.0938 906.0625,384.1719 906.0625,386.8906 L906.0625,388.0156 C906.0625,390.5938 908.1719,392.4844 911.0625,392.4844 C912.2813,392.4844 913.4375,392.1875 914.1875,391.6406 C914.7656,391.2344 915.0938,390.7813 915.0938,390.3906 C915.0938,389.9375 914.7031,389.5469 914.2344,389.5469 C914.0156,389.5469 913.8125,389.625 913.625,389.8125 C913.1719,390.2969 913.1719,390.2969 912.9844,390.3906 C912.5625,390.6563 911.875,390.7813 911.1094,390.7813 C909.0625,390.7813 907.7656,389.6875 907.7656,387.9844 L907.7656,386.8906 C907.7656,385.1094 909.0156,383.7969 910.75,383.7969 C911.3281,383.7969 911.9375,383.9531 912.4063,384.2031 C912.8906,384.4844 913.0625,384.7031 913.1563,385.1094 C913.2188,385.5156 913.25,385.6406 913.3906,385.7656 C913.5313,385.9063 913.7656,386.0156 913.9844,386.0156 C914.25,386.0156 914.5156,385.875 914.6875,385.6563 C914.7969,385.5 914.8281,385.3125 914.8281,384.8906 L914.8281,383.4688 C914.8281,383.0313 914.8125,382.9063 914.7188,382.75 C914.5625,382.4844 914.2813,382.3438 913.9844,382.3438 C913.6875,382.3438 913.4844,382.4375 913.2656,382.75 L913.0938,382.6719 Z " fill="#000000"/><text fill="#000000" font-family="sans-serif" font-size="12" lengthAdjust="spacing" textLength="37" x="931.25" y="391.1543">Image</text><line style="stroke:#A80036;stroke-width:1.5;" x1="778" x2="1089" y1="403" y2="403"/><text fill="#000000" font-family="sans-serif" font-size="11" lengthAdjust="spacing" textLength="301" x="783" y="417.2104">std::map&lt; TypeImage, sf::Texture &gt; m_mapTexture;</text><text fill="#000000" font-family="sans-serif" font-size="11" lengthAdjust="spacing" textLength="279" x="783" y="430.0151">std::map&lt; TypeImage, sf::Sprite &gt; m_mapSprite;</text><text fill="#000000" font-family="sans-serif" font-size="11" lengthAdjust="spacing" textLength="86" x="783" y="442.8198">sf::Font m_font;</text><line style="stroke:#A80036;stroke-width:1.5;" x1="778" x2="1089" y1="449.4141" y2="449.4141"/><!--MD5=[7c6ef8b895df9314a0380c40ae29cd9f]
class Sounds--><rect codeLine="218" fill="#FEFECE" filter="url(#f1jxcs9vjeqs6s)" height="99.2188" id="Sounds" style="stroke:#A80036;stroke-width:1.5;" width="365" x="7" y="670.5"/><ellipse cx="162.75" cy="686.5" fill="#ADD1B2" rx="11" ry="11" style="stroke:#A80036;stroke-width:1.0;"/><path d="M165.0938,682.1719 C164.1563,681.7344 163.5625,681.5938 162.6875,681.5938 C160.0625,681.5938 158.0625,683.6719 158.0625,686.3906 L158.0625,687.5156 C158.0625,690.0938 160.1719,691.9844 163.0625,691.9844 C164.2813,691.9844 165.4375,691.6875 166.1875,691.1406 C166.7656,690.7344 167.0938,690.2813 167.0938,689.8906 C167.0938,689.4375 166.7031,689.0469 166.2344,689.0469 C166.0156,689.0469 165.8125,689.125 165.625,689.3125 C165.1719,689.7969 165.1719,689.7969 164.9844,689.8906 C164.5625,690.1563 163.875,690.2813 163.1094,690.2813 C161.0625,690.2813 159.7656,689.1875 159.7656,687.4844 L159.7656,686.3906 C159.7656,684.6094 161.0156,683.2969 162.75,683.2969 C163.3281,683.2969 163.9375,683.4531 164.4063,683.7031 C164.8906,683.9844 165.0625,684.2031 165.1563,684.6094 C165.2188,685.0156 165.25,685.1406 165.3906,685.2656 C165.5313,685.4063 165.7656,685.5156 165.9844,685.5156 C166.25,685.5156 166.5156,685.375 166.6875,685.1563 C166.7969,685 166.8281,684.8125 166.8281,684.3906 L166.8281,682.9688 C166.8281,682.5313 166.8125,682.4063 166.7188,682.25 C166.5625,681.9844 166.2813,681.8438 165.9844,681.8438 C165.6875,681.8438 165.4844,681.9375 165.2656,682.25 L165.0938,682.1719 Z " fill="#000000"/><text fill="#000000" font-family="sans-serif" font-size="12" lengthAdjust="spacing" textLength="45" x="183.25" y="690.6543">Sounds</text><line style="stroke:#A80036;stroke-width:1.5;" x1="8" x2="371" y1="702.5" y2="702.5"/><text fill="#000000" font-family="sans-serif" font-size="11" lengthAdjust="spacing" textLength="353" x="13" y="716.7104">std::map&lt; TypeSound, sf::SoundBuffer &gt; m_mapSoundBuffer;</text><text fill="#000000" font-family="sans-serif" font-size="11" lengthAdjust="spacing" textLength="289" x="13" y="729.5151">std::map&lt; TypeSound, sf::Sound &gt; m_mapSounds;</text><text fill="#000000" font-family="sans-serif" font-size="11" lengthAdjust="spacing" textLength="0" x="17" y="742.3198"/><text fill="#000000" font-family="sans-serif" font-size="11" lengthAdjust="spacing" textLength="268" x="13" y="755.1245">std::map&lt; TypeMusic, sf::Music &gt; m_mapMusic;</text><line style="stroke:#A80036;stroke-width:1.5;" x1="8" x2="371" y1="761.7188" y2="761.7188"/><!--MD5=[8db60afef7a3447bbe27c5ed187fdac2]
class Exception--><rect codeLine="225" fill="#FEFECE" filter="url(#f1jxcs9vjeqs6s)" height="73.6094" id="Exception" style="stroke:#A80036;stroke-width:1.5;" width="114" x="407.5" y="683"/><ellipse cx="432.85" cy="699" fill="#ADD1B2" rx="11" ry="11" style="stroke:#A80036;stroke-width:1.0;"/><path d="M435.1938,694.6719 C434.2563,694.2344 433.6625,694.0938 432.7875,694.0938 C430.1625,694.0938 428.1625,696.1719 428.1625,698.8906 L428.1625,700.0156 C428.1625,702.5938 430.2719,704.4844 433.1625,704.4844 C434.3813,704.4844 435.5375,704.1875 436.2875,703.6406 C436.8656,703.2344 437.1938,702.7813 437.1938,702.3906 C437.1938,701.9375 436.8031,701.5469 436.3344,701.5469 C436.1156,701.5469 435.9125,701.625 435.725,701.8125 C435.2719,702.2969 435.2719,702.2969 435.0844,702.3906 C434.6625,702.6563 433.975,702.7813 433.2094,702.7813 C431.1625,702.7813 429.8656,701.6875 429.8656,699.9844 L429.8656,698.8906 C429.8656,697.1094 431.1156,695.7969 432.85,695.7969 C433.4281,695.7969 434.0375,695.9531 434.5063,696.2031 C434.9906,696.4844 435.1625,696.7031 435.2563,697.1094 C435.3188,697.5156 435.35,697.6406 435.4906,697.7656 C435.6313,697.9063 435.8656,698.0156 436.0844,698.0156 C436.35,698.0156 436.6156,697.875 436.7875,697.6563 C436.8969,697.5 436.9281,697.3125 436.9281,696.8906 L436.9281,695.4688 C436.9281,695.0313 436.9125,694.9063 436.8188,694.75 C436.6625,694.4844 436.3813,694.3438 436.0844,694.3438 C435.7875,694.3438 435.5844,694.4375 435.3656,694.75 L435.1938,694.6719 Z " fill="#000000"/><text fill="#000000" font-family="sans-serif" font-size="12" lengthAdjust="spacing" textLength="59" x="449.15" y="703.1543">Exception</text><line style="stroke:#A80036;stroke-width:1.5;" x1="408.5" x2="520.5" y1="715" y2="715"/><text fill="#000000" font-family="sans-serif" font-size="11" lengthAdjust="spacing" textLength="102" x="413.5" y="729.2104">const char* m_str;</text><text fill="#000000" font-family="sans-serif" font-size="11" lengthAdjust="spacing" textLength="86" x="413.5" y="742.0151">string m_string;</text><line style="stroke:#A80036;stroke-width:1.5;" x1="408.5" x2="520.5" y1="748.6094" y2="748.6094"/><!--MD5=[68ad706c0ddc1faefb5da74a618e470e]
class FactoryMovable--><rect codeLine="230" fill="#FEFECE" filter="url(#f1jxcs9vjeqs6s)" height="86.4141" id="FactoryMovable" style="stroke:#A80036;stroke-width:1.5;" width="235" x="1882" y="677"/><ellipse cx="1947.25" cy="693" fill="#ADD1B2" rx="11" ry="11" style="stroke:#A80036;stroke-width:1.0;"/><path d="M1949.5938,688.6719 C1948.6563,688.2344 1948.0625,688.0938 1947.1875,688.0938 C1944.5625,688.0938 1942.5625,690.1719 1942.5625,692.8906 L1942.5625,694.0156 C1942.5625,696.5938 1944.6719,698.4844 1947.5625,698.4844 C1948.7813,698.4844 1949.9375,698.1875 1950.6875,697.6406 C1951.2656,697.2344 1951.5938,696.7813 1951.5938,696.3906 C1951.5938,695.9375 1951.2031,695.5469 1950.7344,695.5469 C1950.5156,695.5469 1950.3125,695.625 1950.125,695.8125 C1949.6719,696.2969 1949.6719,696.2969 1949.4844,696.3906 C1949.0625,696.6563 1948.375,696.7813 1947.6094,696.7813 C1945.5625,696.7813 1944.2656,695.6875 1944.2656,693.9844 L1944.2656,692.8906 C1944.2656,691.1094 1945.5156,689.7969 1947.25,689.7969 C1947.8281,689.7969 1948.4375,689.9531 1948.9063,690.2031 C1949.3906,690.4844 1949.5625,690.7031 1949.6563,691.1094 C1949.7188,691.5156 1949.75,691.6406 1949.8906,691.7656 C1950.0313,691.9063 1950.2656,692.0156 1950.4844,692.0156 C1950.75,692.0156 1951.0156,691.875 1951.1875,691.6563 C1951.2969,691.5 1951.3281,691.3125 1951.3281,690.8906 L1951.3281,689.4688 C1951.3281,689.0313 1951.3125,688.9063 1951.2188,688.75 C1951.0625,688.4844 1950.7813,688.3438 1950.4844,688.3438 C1950.1875,688.3438 1949.9844,688.4375 1949.7656,688.75 L1949.5938,688.6719 Z " fill="#000000"/><text fill="#000000" font-family="sans-serif" font-size="12" lengthAdjust="spacing" textLength="96" x="1967.75" y="697.1543">FactoryMovable</text><line style="stroke:#A80036;stroke-width:1.5;" x1="1883" x2="2116" y1="709" y2="709"/><text fill="#000000" font-family="sans-serif" font-size="11" lengthAdjust="spacing" textLength="223" x="1888" y="723.2104">static std::map&lt;const char, pFnc&gt; map;</text><text fill="#000000" font-family="sans-serif" font-size="11" lengthAdjust="spacing" textLength="66" x="1888" y="736.0151">return map;</text><line style="stroke:#A80036;stroke-width:1.5;" x1="1883" x2="2116" y1="742.6094" y2="742.6094"/><text fill="#000000" font-family="sans-serif" font-size="11" lengthAdjust="spacing" textLength="122" x="1888" y="756.8198">static auto&amp; getMap()</text><!--MD5=[c92e6b9c3bb4e2bc88ec7ac4310251f3]
class FactoryStatic--><rect codeLine="237" fill="#FEFECE" filter="url(#f1jxcs9vjeqs6s)" height="86.4141" id="FactoryStatic" style="stroke:#A80036;stroke-width:1.5;" width="242" x="2808.5" y="677"/><ellipse cx="2886.25" cy="693" fill="#ADD1B2" rx="11" ry="11" style="stroke:#A80036;stroke-width:1.0;"/><path d="M2888.5938,688.6719 C2887.6563,688.2344 2887.0625,688.0938 2886.1875,688.0938 C2883.5625,688.0938 2881.5625,690.1719 2881.5625,692.8906 L2881.5625,694.0156 C2881.5625,696.5938 2883.6719,698.4844 2886.5625,698.4844 C2887.7813,698.4844 2888.9375,698.1875 2889.6875,697.6406 C2890.2656,697.2344 2890.5938,696.7813 2890.5938,696.3906 C2890.5938,695.9375 2890.2031,695.5469 2889.7344,695.5469 C2889.5156,695.5469 2889.3125,695.625 2889.125,695.8125 C2888.6719,696.2969 2888.6719,696.2969 2888.4844,696.3906 C2888.0625,696.6563 2887.375,696.7813 2886.6094,696.7813 C2884.5625,696.7813 2883.2656,695.6875 2883.2656,693.9844 L2883.2656,692.8906 C2883.2656,691.1094 2884.5156,689.7969 2886.25,689.7969 C2886.8281,689.7969 2887.4375,689.9531 2887.9063,690.2031 C2888.3906,690.4844 2888.5625,690.7031 2888.6563,691.1094 C2888.7188,691.5156 2888.75,691.6406 2888.8906,691.7656 C2889.0313,691.9063 2889.2656,692.0156 2889.4844,692.0156 C2889.75,692.0156 2890.0156,691.875 2890.1875,691.6563 C2890.2969,691.5 2890.3281,691.3125 2890.3281,690.8906 L2890.3281,689.4688 C2890.3281,689.0313 2890.3125,688.9063 2890.2188,688.75 C2890.0625,688.4844 2889.7813,688.3438 2889.4844,688.3438 C2889.1875,688.3438 2888.9844,688.4375 2888.7656,688.75 L2888.5938,688.6719 Z " fill="#000000"/><text fill="#000000" font-family="sans-serif" font-size="12" lengthAdjust="spacing" textLength="78" x="2906.75" y="697.1543">FactoryStatic</text><line style="stroke:#A80036;stroke-width:1.5;" x1="2809.5" x2="3049.5" y1="709" y2="709"/><text fill="#000000" font-family="sans-serif" font-size="11" lengthAdjust="spacing" textLength="230" x="2814.5" y="723.2104">static std::map&lt;const char, pFnc2&gt; map;</text><text fill="#000000" font-family="sans-serif" font-size="11" lengthAdjust="spacing" textLength="66" x="2814.5" y="736.0151">return map;</text><line style="stroke:#A80036;stroke-width:1.5;" x1="2809.5" x2="3049.5" y1="742.6094" y2="742.6094"/><text fill="#000000" font-family="sans-serif" font-size="11" lengthAdjust="spacing" textLength="122" x="2814.5" y="756.8198">static auto&amp; getMap()</text><!--MD5=[7c650d6d2ce103bec6d76affe2c6d46b]
class StaticObject--><rect fill="#FEFECE" filter="url(#f1jxcs9vjeqs6s)" height="48" id="StaticObject" style="stroke:#A80036;stroke-width:1.5;" width="105" x="2509" y="390"/><ellipse cx="2524" cy="406" fill="#ADD1B2" rx="11" ry="11" style="stroke:#A80036;stroke-width:1.0;"/><path d="M2526.3438,401.6719 C2525.4063,401.2344 2524.8125,401.0938 2523.9375,401.0938 C2521.3125,401.0938 2519.3125,403.1719 2519.3125,405.8906 L2519.3125,407.0156 C2519.3125,409.5938 2521.4219,411.4844 2524.3125,411.4844 C2525.5313,411.4844 2526.6875,411.1875 2527.4375,410.6406 C2528.0156,410.2344 2528.3438,409.7813 2528.3438,409.3906 C2528.3438,408.9375 2527.9531,408.5469 2527.4844,408.5469 C2527.2656,408.5469 2527.0625,408.625 2526.875,408.8125 C2526.4219,409.2969 2526.4219,409.2969 2526.2344,409.3906 C2525.8125,409.6563 2525.125,409.7813 2524.3594,409.7813 C2522.3125,409.7813 2521.0156,408.6875 2521.0156,406.9844 L2521.0156,405.8906 C2521.0156,404.1094 2522.2656,402.7969 2524,402.7969 C2524.5781,402.7969 2525.1875,402.9531 2525.6563,403.2031 C2526.1406,403.4844 2526.3125,403.7031 2526.4063,404.1094 C2526.4688,404.5156 2526.5,404.6406 2526.6406,404.7656 C2526.7813,404.9063 2527.0156,405.0156 2527.2344,405.0156 C2527.5,405.0156 2527.7656,404.875 2527.9375,404.6563 C2528.0469,404.5 2528.0781,404.3125 2528.0781,403.8906 L2528.0781,402.4688 C2528.0781,402.0313 2528.0625,401.9063 2527.9688,401.75 C2527.8125,401.4844 2527.5313,401.3438 2527.2344,401.3438 C2526.9375,401.3438 2526.7344,401.4375 2526.5156,401.75 L2526.3438,401.6719 Z " fill="#000000"/><text fill="#000000" font-family="sans-serif" font-size="12" lengthAdjust="spacing" textLength="73" x="2538" y="410.1543">StaticObject</text><line style="stroke:#A80036;stroke-width:1.5;" x1="2510" x2="2613" y1="422" y2="422"/><line style="stroke:#A80036;stroke-width:1.5;" x1="2510" x2="2613" y1="430" y2="430"/><!--MD5=[3d074c31ed68b2798fedff600a9094b1]
reverse link GameObject to StaticObject--><path codeLine="245" d="M1978.9,170.604 C2126.92,232.189 2395.33,343.864 2508.7,391.033 " fill="none" id="GameObject-backto-StaticObject" style="stroke:#A80036;stroke-width:1.0;"/><polygon fill="none" points="1975.93,176.95,1960.15,162.804,1981.31,164.024,1975.93,176.95" style="stroke:#A80036;stroke-width:1.0;"/><!--MD5=[82c0a8aafa3019b7147fc7421fa4dbb7]
reverse link GameObject to MovingObject--><path codeLine="246" d="M1798.46,181.595 C1740.66,221.289 1660.54,276.31 1592.93,322.742 " fill="none" id="GameObject-backto-MovingObject" style="stroke:#A80036;stroke-width:1.0;"/><polygon fill="none" points="1794.82,175.605,1815.27,170.053,1802.74,187.145,1794.82,175.605" style="stroke:#A80036;stroke-width:1.0;"/><!--MD5=[be046d7f6531eada7f7efa311f0d36e6]
reverse link StaticObject to StaticObjectConst--><path codeLine="247" d="M2527.49,453.288 C2470.68,517.257 2358.14,643.964 2311.98,695.936 " fill="none" id="StaticObject-backto-StaticObjectConst" style="stroke:#A80036;stroke-width:1.0;"/><polygon fill="none" points="2522.47,448.404,2540.98,438.099,2532.94,457.701,2522.47,448.404" style="stroke:#A80036;stroke-width:1.0;"/><!--MD5=[0cc58c66b0b826b0c49b6157255e5662]
reverse link StaticObject to StaticObjectVariable--><path codeLine="248" d="M2579.97,456.601 C2608.81,521.54 2663.57,644.847 2686.26,695.936 " fill="none" id="StaticObject-backto-StaticObjectVariable" style="stroke:#A80036;stroke-width:1.0;"/><polygon fill="none" points="2573.48,459.219,2571.76,438.099,2586.27,453.537,2573.48,459.219" style="stroke:#A80036;stroke-width:1.0;"/><!--MD5=[2cb9b08a12482535cda8ec711946111b]
reverse link StaticObject to FactoryStatic--><path codeLine="249" d="M2613.86,449.253 C2661.67,481.344 2733.52,531.638 2791.5,581 C2826.84,611.091 2863.88,648.497 2890.68,676.771 " fill="none" id="StaticObject-backto-FactoryStatic" style="stroke:#A80036;stroke-width:1.0;"/><polygon fill="none" points="2609.86,455.001,2597.09,438.087,2617.62,443.349,2609.86,455.001" style="stroke:#A80036;stroke-width:1.0;"/><!--MD5=[3df5d9c619884158188939a17dbfa57b]
reverse link StaticObjectConst to Pole--><path codeLine="250" d="M2254.6,758.334 C2224.13,787.918 2178.82,829.107 2134.5,859 C2110.02,875.513 2044.71,907.609 1994.73,931.4071 " fill="none" id="StaticObjectConst-backto-Pole" style="stroke:#A80036;stroke-width:1.0;"/><polygon fill="none" points="2249.95,753.095,2269.11,744.042,2259.77,763.067,2249.95,753.095" style="stroke:#A80036;stroke-width:1.0;"/><!--MD5=[8ef725b9cae5db6d4f7421ba0680b054]
reverse link StaticObjectConst to Wall--><path codeLine="251" d="M2262.18,760.088 C2226.23,808.032 2166.07,888.235 2133.71,931.3814 " fill="none" id="StaticObjectConst-backto-Wall" style="stroke:#A80036;stroke-width:1.0;"/><polygon fill="none" points="2256.64,755.812,2274.24,744.012,2267.84,764.212,2256.64,755.812" style="stroke:#A80036;stroke-width:1.0;"/><!--MD5=[74c71b99f04cf1d59d6bbdf1318c9c26]
reverse link StaticObjectConst to Spikes--><path codeLine="252" d="M2291.5,764.265 C2291.5,812.575 2291.5,889.465 2291.5,931.3814 " fill="none" id="StaticObjectConst-backto-Spikes" style="stroke:#A80036;stroke-width:1.0;"/><polygon fill="none" points="2284.5,764.012,2291.5,744.012,2298.5,764.012,2284.5,764.012" style="stroke:#A80036;stroke-width:1.0;"/><!--MD5=[b7e22bf36db4f945dcbf50ad508f8dbb]
reverse link StaticObjectConst to Springboard--><path codeLine="253" d="M2320.82,760.088 C2356.77,808.032 2416.93,888.235 2449.29,931.3814 " fill="none" id="StaticObjectConst-backto-Springboard" style="stroke:#A80036;stroke-width:1.0;"/><polygon fill="none" points="2315.16,764.212,2308.76,744.012,2326.36,755.812,2315.16,764.212" style="stroke:#A80036;stroke-width:1.0;"/><!--MD5=[e0d41898fd781307174896f05d58b9db]
reverse link StaticObjectConst to Floor--><path codeLine="254" d="M2258.94,759.024 C2229.62,790.728 2183.7,834.53 2134.5,859 C2015.48,918.1941 1967.71,877.274 1841.5,919 C1831.02,922.4641 1820.16,926.8211 1809.76,931.4081 " fill="none" id="StaticObjectConst-backto-Floor" style="stroke:#A80036;stroke-width:1.0;"/><polygon fill="none" points="2253.73,754.342,2272.3,744.142,2264.15,763.698,2253.73,754.342" style="stroke:#A80036;stroke-width:1.0;"/><!--MD5=[f232c35f535766ae75f6d72a41ab623d]
reverse link StaticObjectConst to Circle--><path codeLine="255" d="M2342.74,755.163 C2413.54,802.358 2540.08,886.721 2607.07,931.3814 " fill="none" id="StaticObjectConst-backto-Circle" style="stroke:#A80036;stroke-width:1.0;"/><polygon fill="none" points="2338.78,760.931,2326.02,744.012,2346.54,749.282,2338.78,760.931" style="stroke:#A80036;stroke-width:1.0;"/><!--MD5=[ea252810aea63b32b9b56e9abe7ae820]
reverse link StaticObjectVariable to Emerald--><path codeLine="256" d="M2717.05,762.17 C2733.72,792.2 2759.66,832.173 2791.5,859 C2840.16,900.002 2863.78,892.211 2921.5,919 C2927.13,921.6131 2932.96,924.3219 2938.81,927.0477 " fill="none" id="StaticObjectVariable-backto-Emerald" style="stroke:#A80036;stroke-width:1.0;"/><polygon fill="none" points="2710.65,765.057,2707.45,744.111,2723.02,758.49,2710.65,765.057" style="stroke:#A80036;stroke-width:1.0;"/><!--MD5=[b7c5dcba4cb6db0bf28e6c44b1a22b0d]
reverse link StaticObjectVariable to Ring--><path codeLine="257" d="M2719.25,761.452 C2744.99,807.202 2786.51,881.023 2811.19,924.8971 " fill="none" id="StaticObjectVariable-backto-Ring" style="stroke:#A80036;stroke-width:1.0;"/><polygon fill="none" points="2713.15,764.876,2709.44,744.012,2725.35,758.012,2713.15,764.876" style="stroke:#A80036;stroke-width:1.0;"/><!--MD5=[285358b3ec61796af04d07468bb8e3bc]
reverse link MovingObject to Player--><path codeLine="258" d="M1310.88,463.513 C1248.33,482.767 1174.78,504.262 1107.5,521 C975.126,553.934 926.313,515.79 806.5,581 C800.487,584.273 794.578,587.906 788.794,591.822 " fill="none" id="MovingObject-backto-Player" style="stroke:#A80036;stroke-width:1.0;"/><polygon fill="none" points="1309.17,456.714,1330.35,457.484,1313.32,470.088,1309.17,456.714" style="stroke:#A80036;stroke-width:1.0;"/><!--MD5=[4cb3c25b9ca5b65ec5f630f1f9803501]
reverse link MovingObject to Enemy--><path codeLine="259" d="M1461.5,541.551 C1461.5,596.087 1461.5,655.122 1461.5,689.488 " fill="none" id="MovingObject-backto-Enemy" style="stroke:#A80036;stroke-width:1.0;"/><polygon fill="none" points="1454.5,541.324,1461.5,521.324,1468.5,541.324,1454.5,541.324" style="stroke:#A80036;stroke-width:1.0;"/><!--MD5=[9c706278e984ffc0938931671656a369]
reverse link MovingObject to HorizontalPlattform--><path codeLine="260" d="M1311.24,461.929 C1234.71,489.812 1142.46,529.795 1068.5,581 C1030.07,607.606 994.099,646.961 969.612,676.843 " fill="none" id="MovingObject-backto-HorizontalPlattform" style="stroke:#A80036;stroke-width:1.0;"/><polygon fill="none" points="1309.14,455.243,1330.33,455.101,1313.86,468.425,1309.14,455.243" style="stroke:#A80036;stroke-width:1.0;"/><!--MD5=[4a765c04fecd6561148fb88a14e911f3]
reverse link MovingObject to VerticalPlattform--><path codeLine="261" d="M1356.71,536.592 C1313.83,586.338 1267.06,640.615 1235.77,676.915 " fill="none" id="MovingObject-backto-VerticalPlattform" style="stroke:#A80036;stroke-width:1.0;"/><polygon fill="none" points="1351.51,531.904,1369.87,521.324,1362.11,541.044,1351.51,531.904" style="stroke:#A80036;stroke-width:1.0;"/><!--MD5=[c454a66c41726928fb24dffa6abf69f4]
reverse link MovingObject to Bullet--><path codeLine="262" d="M1568.29,536.592 C1611.98,586.338 1659.66,640.615 1691.54,676.915 " fill="none" id="MovingObject-backto-Bullet" style="stroke:#A80036;stroke-width:1.0;"/><polygon fill="none" points="1562.82,540.971,1554.88,521.324,1573.34,531.732,1562.82,540.971" style="stroke:#A80036;stroke-width:1.0;"/><!--MD5=[6aa685ea01ac2acc202bfb8d5fea3e14]
reverse link MovingObject to FactoryMovable--><path codeLine="263" d="M1611.88,460.552 C1690.94,488.438 1787.2,528.846 1864.5,581 C1903.81,607.526 1940.91,646.889 1966.23,676.795 " fill="none" id="MovingObject-backto-FactoryMovable" style="stroke:#A80036;stroke-width:1.0;"/><polygon fill="none" points="1609.57,467.158,1592.96,453.999,1614.15,453.929,1609.57,467.158" style="stroke:#A80036;stroke-width:1.0;"/><!--MD5=[ef04ee407f3559367478e9aa6e8d732a]
reverse link Enemy to EnemySlow--><path codeLine="264" d="M1421.47,765.45 C1396.09,793.059 1362.17,828.896 1330.5,859 C1303.78,884.401 1272,911.4887 1248.01,931.3611 " fill="none" id="Enemy-backto-EnemySlow" style="stroke:#A80036;stroke-width:1.0;"/><polygon fill="none" points="1416.34,760.696,1434.99,750.649,1426.67,770.137,1416.34,760.696" style="stroke:#A80036;stroke-width:1.0;"/><!--MD5=[b2d0017ffc1f18b21859b8841171fc77]
reverse link Enemy to EnemyFast--><path codeLine="265" d="M1447.1,770.384 C1432.95,818.891 1411.83,891.296 1400.11,931.4661 " fill="none" id="Enemy-backto-EnemyFast" style="stroke:#A80036;stroke-width:1.0;"/><polygon fill="none" points="1440.46,768.151,1452.78,750.911,1453.9,772.071,1440.46,768.151" style="stroke:#A80036;stroke-width:1.0;"/><!--MD5=[ddf900763db2db8272f38b4e5e8f6867]
reverse link Enemy to Boss--><path codeLine="266" d="M1483.59,769.202 C1503.7,813.066 1533.08,877.172 1552.24,918.9882 " fill="none" id="Enemy-backto-Boss" style="stroke:#A80036;stroke-width:1.0;"/><polygon fill="none" points="1477.18,772.009,1475.21,750.911,1489.91,766.176,1477.18,772.009" style="stroke:#A80036;stroke-width:1.0;"/><!--MD5=[92255c239511bc95f9e2331f10cfb44d]
link GameManger to Menu--><!--MD5=[1346de1a7f015657599cc7e1c225fcb5]
link Menu to Board--><!--MD5=[a676224b545de2f8b00c905b7798379b]
link Board to Direction--><!--MD5=[64514a5e36a0dcea9ae02aaaacb7abd7]
link GameManger to Location--><!--MD5=[aa45b56b003bf0490802d4f568e35b27]
link Location to Rotation--><!--MD5=[6c01dfd916de70ad9c53e85cac811e88]
link Rotation to Collision--><!--MD5=[04a6c08cbbd0c637aab8684215607c7d]
link Collision to Image--><!--MD5=[cf0c2325d5da90d078eb76d306f730bc]
link Location to Sounds--><!--MD5=[674133ad4d382c4abfba4b39bdbf0513]
link Sounds to Exception--><!--MD5=[4db0d11e120cc17a6693b01dea972aaa]
@startuml
class GameManger
{
 	sf::RenderWindow m_window;
	Board m_board;
	sf::Event m_event;
	Location m_centerView;
	sf::Vector2f m_MousePos;
	sf::Clock m_clock;
	sf::Clock m_clockRun;
	sf::Time m_time;
	Player* m_player;
	Menu m_menu;

	bool m_win = false;
	int m_level;

	const char* m_nameFile;
}

class Menu
{
	sf::RenderWindow m_window;
	Board& m_board;
	sf::Event m_event;
	sf::Vector2f m_MousePos;

	std::map < Bool, bool > m_mapBool;

	int m_level;
	char m_char;
	vector < vector < char> > m_charLevelSave;
	int m_height;
	int m_width;
}

class Board
{
	vector < string > m_charBoard;
	vector < shared_ptr < MovingObject >> m_movables;
	vector < unique_ptr < StaticObject >> m_statics;

	vector < unique_ptr < GameObject >> m_menuObjects; // for creator level mode
	vector < unique_ptr < GameObject >> m_objects; // for creator level mode

	ifstream m_BoardFile;
	streamoff m_startLevelOnTextBoard;
	sf::Sprite m_sprite;
	sf::Vector2f m_sizeBoard;

	int m_totalEmerald;
	bool m_restartGame = false ;
}


class GameObject
{
	sf::Sprite m_sprite;
	bool m_isDisposed = false;
	char m_char;

}

class MovingObject
{
	Location m_lastLocation;
	Direction m_direction = Direction::STAY;
	Direction m_lastDirection = Direction::STAY;
	sf::Clock m_clock;
	sf::Vector2f m_sizeBoard;
	int m_level;

class StaticObject
{
 void setUnDrawable();
	 void setDrawable();
	 bool getUnDrawableStatus() const;
	bool m_isUndrawable = false;

}


class StaticObjectConst
{
}

class StaticObjectVariable
{
}

class Floor
{
static bool m_registerit;
}
class Pole
{
static bool m_registerit;

}

class Wall
{
static bool m_registerit;
}


class Ring
{
static int m_rings;
static bool m_registerit;
}

class Emerald
{
	static int m_emerald;
	static bool m_registerit;
}

class Spikes
{
static bool m_registerit;	
}

class Springboard
{
static bool m_registerit;
}

class Player
{
	bool m_jumpModeSpringboard = false;
	bool m_jump = false;
	bool m_onCircle = false;
	bool m_finishLoop = false;
	bool m_ballSpeedMode = false;
	bool m_isDead = false;
	bool m_killBoss = false;
	bool m_touchEmerald = false;

	Location m_lastCircleLocation;
	double m_angleCircle;
	double m_angleJump;

	static int m_life;
	static int m_heart;
	static int m_collectedRings;

	static bool m_registerit;
}

class HorizontalPlattform
{
	shared_ptr<MovingObject> m_player;
	int m_rand;
	static bool m_registerit;
}

class VerticalPlattform
{
	shared_ptr<MovingObject> m_player;
	int m_rand;
	static bool m_registerit;
}

class Enemy
{
shared_ptr<MovingObject> m_player;
}

class EnemySlow
{
static bool m_registerit;
}

class EnemyFast
{
static bool m_registerit;
}

class Boss
{
	static int m_life;
	static bool m_registerit;
	static bool m_shooting;
}

class Bullet 
{
	Rotation m_rotation = Rotation::Default;
	shared_ptr<MovingObject> m_player;
	static bool m_registerit;
}
class Circle
{
	static bool m_registerit;
}
class Direction
{
}
class Location 
{
}
class Rotation
{
}
class Collision
{
using HitFunctionPtr = void (*)(GameObject&, GameObject&);
using Key = std::pair<std::type_index, std::type_index>;
using HitMap = std::map<Key, HitFunctionPtr>;
}
class Image
{
	std::map< TypeImage, sf::Texture > m_mapTexture;
	std::map< TypeImage, sf::Sprite > m_mapSprite;
	sf::Font m_font;
}

class Sounds
{
	std::map< TypeSound, sf::SoundBuffer > m_mapSoundBuffer;
	std::map< TypeSound, sf::Sound > m_mapSounds;

	std::map< TypeMusic, sf::Music > m_mapMusic;
}
class Exception
{
	const char* m_str;
    string m_string;
}
class FactoryMovable
{
	static auto& getMap() 
		static std::map<const char, pFnc> map;
		return map;

}
class FactoryStatic
{
	static auto& getMap() 
		static std::map<const char, pFnc2> map;
		return map;
	
}

GameObject <|- - StaticObject
GameObject <|- - MovingObject
StaticObject <|- - StaticObjectConst
StaticObject <|- - StaticObjectVariable
StaticObject <|- - FactoryStatic
StaticObjectConst <|- - Pole
StaticObjectConst <|- - Wall
StaticObjectConst <|- - Spikes
StaticObjectConst <|- - Springboard
StaticObjectConst <|- - Floor
StaticObjectConst <|- - Circle
StaticObjectVariable <|- - Emerald
StaticObjectVariable <|- - Ring
MovingObject <|- - Player
MovingObject <|- - Enemy
MovingObject <|- - HorizontalPlattform
MovingObject <|- - VerticalPlattform
MovingObject <|- -Bullet
MovingObject <|- -FactoryMovable
Enemy <|- - EnemySlow
Enemy <|- - EnemyFast
Enemy <|- - Boss
@enduml

PlantUML version 1.2021.7(Sun May 23 12:40:07 UTC 2021)
(GPL source distribution)
Java Runtime: Java(TM) SE Runtime Environment
JVM: Java HotSpot(TM) 64-Bit Server VM
Default Encoding: UTF-8
Language: en
Country: US
--></g></svg>